0
SECTION
2
HEADER
9
$INSUNITS
70
4
9
$ACADVER
1
AC1014
9
$HANDSEED
5
FFFF
0
ENDSEC
0
SECTION
2
TABLES
0
TABLE
2
VPORT
5
8
100
AcDbSymbolTable
0
ENDTAB
0
TABLE
2
LTYPE
5
5
100
AcDbSymbolTable
0
LTYPE
5
14
100
AcDbSymbolTableRecord
100
AcDbLinetypeTableRecord
2
BYBLOCK
70
0
0
LTYPE
5
15
100
AcDbSymbolTableRecord
100
AcDbLinetypeTableRecord
2
BYLAYER
70
0
0
LTYPE
5
16
100
AcDbSymbolTableRecord
100
AcDbLinetypeTableRecord
2
DASHED
70
0
3
Dashed __ __ __ __ __ __ __ __ __ __ __ __ __ _
72
65
73
2
40
0.75
49
0.5
74
0
49
-0.25
74
0
0
ENDTAB
0
TABLE
2
LAYER
5
2
100
AcDbSymbolTable
70
2
0
LAYER
5
50
100
AcDbSymbolTableRecord
100
AcDbLayerTableRecord
2
0
70
0
62
7
6
CONTINUOUS
0
ENDTAB
0
TABLE
2
STYLE
5
3
100
AcDbSymbolTable
70
1
0
STYLE
5
11
100
AcDbSymbolTableRecord
100
AcDbTextStyleTableRecord
2
STANDARD
70
0
0
ENDTAB
0
TABLE
2
VIEW
5
6
100
AcDbSymbolTable
70
0
0
ENDTAB
0
TABLE
2
UCS
5
7
100
AcDbSymbolTable
70
0
0
ENDTAB
0
TABLE
2
APPID
5
9
100
AcDbSymbolTable
70
2
0
APPID
5
12
100
AcDbSymbolTableRecord
100
AcDbRegAppTableRecord
2
ACAD
70
0
0
ENDTAB
0
TABLE
2
DIMSTYLE
5
A
100
AcDbSymbolTable
70
1
0
ENDTAB
0
TABLE
2
BLOCK_RECORD
5
1
100
AcDbSymbolTable
70
1
0
BLOCK_RECORD
5
1F
100
AcDbSymbolTableRecord
100
AcDbBlockTableRecord
2
*MODEL_SPACE
0
BLOCK_RECORD
5
1B
100
AcDbSymbolTableRecord
100
AcDbBlockTableRecord
2
*PAPER_SPACE
0
ENDTAB
0
ENDSEC
0
SECTION
2
BLOCKS
0
BLOCK
5
20
100
AcDbEntity
100
AcDbBlockBegin
2
*MODEL_SPACE
0
ENDBLK
5
21
100
AcDbEntity
100
AcDbBlockEnd
0
BLOCK
5
1C
100
AcDbEntity
100
AcDbBlockBegin
2
*PAPER_SPACE
0
ENDBLK
5
1D
100
AcDbEntity
100
AcDbBlockEnd
0
ENDSEC
0
SECTION
2
ENTITIES
0
LWPOLYLINE
5
100
100
AcDbEntity
8
OUTER_PROFILES
100
AcDbPolyline
90
44
70
1
43
0.0
10
4.9737991503207013e-13
20
483.00724915894864
10
0.26794919243176452
20
481.49928468522489
10
41.915629543167405
20
398.20392398375367
10
42.233466788363145
20
398.20392398375367
10
42.23346678836311
20
395.18799503630765
10
39.217537840916776
20
395.1879950363076
10
39.217537840916776
20
395.5058322815035
10
-44.077822860554541
20
437.15351263223909
10
-45.58578733427769
20
437.42146182467081
10
-105.0498889494153
20
437.42146182467036
10
-105.04988894941593
20
240.24988894941657
10
-45.585787334278258
20
240.24988894941697
10
-44.077822860555038
20
240.51783814184768
10
39.217537840916457
20
282.16551849258332
10
39.217537840916457
20
282.48335573777911
10
42.233466788362826
20
282.48335573777905
10
42.233466788362826
20
279.46742679033292
10
41.91562954316705
20
279.46742679033292
10
0.26794919243144477
20
196.17206608886164
10
7.1054273576010019e-14
20
194.66410161513812
10
0
20
0
10
357.17157287525424
20
-3.5527136788005009e-14
10
357.1715728752543
20
194.66410161513807
10
356.90362368282314
20
196.17206608886164
10
315.25594333208761
20
279.46742679033281
10
314.93810608689171
20
279.46742679033281
10
314.93810608689176
20
282.48335573777888
10
317.95403503433806
20
282.48335573777899
10
317.95403503433806
20
282.16551849258309
10
401.24939573580946
20
240.51783814184745
10
402.75736020953281
20
240.24988894941578
10
462.22146182467054
20
240.24988894941634
10
462.22146182467066
20
437.4214618246703
10
402.75736020953286
20
437.42146182466973
10
401.24939573580946
20
437.15351263223909
10
317.95403503433806
20
395.50583228150333
10
317.95403503433806
20
395.18799503630771
10
314.93810608689171
20
395.1879950363076
10
314.93810608689165
20
398.20392398375361
10
315.2559433320875
20
398.20392398375361
10
356.90362368282308
20
481.49928468522489
10
357.17157287525418
20
483.00724915894847
10
357.17157287525436
20
677.6713507740867
10
7.1054273576010019e-13
20
677.6713507740867
0
LINE
5
101
100
AcDbEntity
8
BEND
100
AcDbLine
10
0.13397459621572239
20
195.41808385199982
30
-1.7415585890865811e-11
11
357.03759827903866
21
195.41808385199982
31
-1.7436520967904486e-11
0
LINE
5
102
100
AcDbEntity
8
BEND
100
AcDbLine
10
-44.831805097415973
20
437.28748722845489
30
-1.8800825035850777e-11
11
-44.831805097416542
21
240.38386354563238
31
-1.8510940155237473e-11
0
LINE
5
103
100
AcDbEntity
8
BEND
100
AcDbLine
10
357.03759827903866
20
482.25326692208671
30
-1.7211057267137828e-11
11
0.13397459621614871
21
482.25326692208671
31
-1.720610825404835e-11
0
LINE
5
104
100
AcDbEntity
8
BEND
100
AcDbLine
10
402.00337797267133
20
240.38386354563158
30
-1.3707082741148876e-11
11
402.00337797267127
21
437.28748722845438
31
-1.3336333956808912e-11
0
LINE
5
105
100
AcDbEntity
8
BEND
100
AcDbLine
10
42.233466788362826
20
280.97539126405599
30
-1.6823276834600488e-11
11
314.93810608689171
21
280.97539126405582
31
-1.6842924495687651e-11
0
LINE
5
106
100
AcDbEntity
8
BEND
100
AcDbLine
10
40.725502314639925
20
395.1879950363076
30
-1.6822973395143416e-11
11
40.725502314639641
21
282.48335573777911
31
-1.6758938501156631e-11
0
LINE
5
107
100
AcDbEntity
8
BEND
100
AcDbLine
10
314.93810608689171
20
396.69595951003078
30
-1.6777763735159684e-11
11
42.233466788363145
21
396.69595951003078
31
-1.6897729162983683e-11
0
LINE
5
108
100
AcDbEntity
8
BEND
100
AcDbLine
10
316.44607056061488
20
282.48335573777899
30
-1.6720965035970766e-11
11
316.44607056061483
21
395.18799503630765
31
-1.6642717640278531e-11
0
LINE
5
109
100
AcDbEntity
8
BEND_EXTENT
100
AcDbLine
10
402.75736020953286
20
437.42146182466973
30
-1.6701590287663772e-11
11
402.75736020953281
21
240.24988894941578
31
-1.6701590287663772e-11
0
LINE
5
110
100
AcDbEntity
8
BEND_EXTENT
100
AcDbLine
10
401.24939573580946
20
240.51783814184745
30
-1.3433345375222549e-11
11
401.24939573580946
21
437.15351263223909
31
-1.670184195971901e-11
0
LINE
5
111
100
AcDbEntity
8
BEND_EXTENT
100
AcDbLine
10
-45.585787334278258
20
240.24988894941697
30
-1.6776416613722075e-11
11
-45.58578733427769
21
437.42146182467081
31
-1.6776416613722075e-11
0
LINE
5
112
100
AcDbEntity
8
BEND_EXTENT
100
AcDbLine
10
-44.077822860554541
20
437.15351263223909
30
-1.8481467507491075e-11
11
-44.077822860555038
21
240.51783814184768
31
-1.6776164941666837e-11
0
LINE
5
113
100
AcDbEntity
8
BEND_EXTENT
100
AcDbLine
10
317.95403503433806
20
395.18799503630771
30
-1.650258073613401e-11
11
317.95403503433806
21
282.48335573777899
31
-1.657363500971002e-11
0
LINE
5
114
100
AcDbEntity
8
BEND_EXTENT
100
AcDbLine
10
39.217537840916457
20
282.48335573777911
30
-1.6762263344523804e-11
11
39.217537840916776
21
395.1879950363076
31
-1.6833317618099814e-11
0
LINE
5
115
100
AcDbEntity
8
BEND_EXTENT
100
AcDbLine
10
4.9737991503207013e-13
20
483.00724915894864
30
-1.6768808563938364e-11
11
357.17157287525418
21
483.00724915894847
31
-1.6709198337447483e-11
0
LINE
5
116
100
AcDbEntity
8
BEND_EXTENT
100
AcDbLine
10
356.90362368282308
20
481.49928468522489
30
-1.7135568698341657e-11
11
0.26794919243172899
21
481.49928468522489
31
-1.676876384450025e-11
0
LINE
5
117
100
AcDbEntity
8
BEND_EXTENT
100
AcDbLine
10
357.1715728752543
20
194.66410161513807
30
-1.6709198337447483e-11
11
7.1054273576010019e-14
21
194.66410161513812
31
-1.6768808563938364e-11
0
LINE
5
118
100
AcDbEntity
8
BEND_EXTENT
100
AcDbLine
10
0.26794919243144477
20
196.17206608886164
30
-1.7585887990624365e-11
11
356.90362368282314
21
196.17206608886164
31
-1.6709243056885597e-11
0
LINE
5
119
100
AcDbEntity
8
BEND_EXTENT
100
AcDbLine
10
42.233466788363145
20
398.20392398375367
30
-1.6974922821141356e-11
11
314.93810608689165
21
398.20392398375361
31
-1.6929409721700552e-11
0
LINE
5
120
100
AcDbEntity
8
BEND_EXTENT
100
AcDbLine
10
314.93810608689171
20
279.46742679033281
30
-1.6858355448124542e-11
11
42.233466788362826
21
279.46742679033292
31
-1.6797287137201331e-11
0
LWPOLYLINE
5
121
100
AcDbEntity
8
BEND_EXTENT
100
AcDbPolyline
90
4
70
1
43
0.0
10
314.93810608689176
20
282.48335573777888
10
314.93810608689171
20
395.1879950363076
10
42.23346678836311
20
395.18799503630765
10
42.233466788362826
20
282.48335573777905
0
ENDSEC
0
SECTION
2
OBJECTS
0
DICTIONARY
5
C
100
AcDbDictionary
3
ACAD_GROUP
350
D
3
ACAD_MLINESTYLE
350
17
0
DICTIONARY
5
D
100
AcDbDictionary
0
DICTIONARY
5
1A
330
C
100
AcDbDictionary
0
DICTIONARY
5
17
100
AcDbDictionary
0
ENDSEC
0
EOF
