  0
SECTION
  2
HEADER
  9
$ACADVER
  1
AC1015
  9
$ACADMAINTVER
 70
     6
  9
$DWGCODEPAGE
  3
ANSI_1252
  9
$INSBASE
 10
0.0
 20
0.0
 30
0.0
  9
$EXTMIN
 10
0.0
 20
0.0
 30
0.0
  9
$EXTMAX
 10
279.4
 20
215.9
 30
0.0
  9
$LIMMIN
 10
0.0
 20
0.0
  9
$LIMMAX
 10
279.4
 20
215.9
  9
$ORTHOMODE
 70
     0
  9
$REGENMODE
 70
     1
  9
$FILLMODE
 70
     1
  9
$QTEXTMODE
 70
     0
  9
$MIRRTEXT
 70
     1
  9
$LTSCALE
 40
1.0
  9
$ATTMODE
 70
     1
  9
$TEXTSIZE
 40
1.5
  9
$TRACEWID
 40
1.0
  9
$TEXTSTYLE
  7
Standard
  9
$CLAYER
  8
0
  9
$CELTYPE
  6
ByLayer
  9
$CECOLOR
 62
   256
  9
$CELTSCALE
 40
1.0
  9
$DISPSILH
 70
     0
  9
$DIMSCALE
 40
1.0
  9
$DIMASZ
 40
3.302
  9
$DIMEXO
 40
1.27
  9
$DIMDLI
 40
3.75
  9
$DIMRND
 40
0.0
  9
$DIMDLE
 40
0.0
  9
$DIMEXE
 40
3.175
  9
$DIMTP
 40
0.0
  9
$DIMTM
 40
0.0
  9
$DIMTXT
 40
3.5
  9
$DIMCEN
 40
2.5
  9
$DIMTSZ
 40
0.0
  9
$DIMTOL
 70
     0
  9
$DIMLIM
 70
     0
  9
$DIMTIH
 70
     1
  9
$DIMTOH
 70
     1
  9
$DIMSE1
 70
     0
  9
$DIMSE2
 70
     0
  9
$DIMTAD
 70
     1
  9
$DIMZIN
 70
     1
  9
$DIMBLK
  1

  9
$DIMASO
 70
     1
  9
$DIMSHO
 70
     1
  9
$DIMPOST
  1

  9
$DIMAPOST
  1

  9
$DIMALT
 70
     0
  9
$DIMALTD
 70
     3
  9
$DIMALTF
 40
0.0393700787
  9
$DIMLFAC
 40
10.0
  9
$DIMTOFL
 70
     1
  9
$DIMTVP
 40
0.0
  9
$DIMTIX
 70
     0
  9
$DIMSOXD
 70
     0
  9
$DIMSAH
 70
     0
  9
$DIMBLK1
  1

  9
$DIMBLK2
  1

  9
$DIMSTYLE
  2
ISO-25
  9
$DIMCLRD
 70
     0
  9
$DIMCLRE
 70
     0
  9
$DIMCLRT
 70
     0
  9
$DIMTFAC
 40
1.0
  9
$DIMGAP
 40
1.524
  9
$DIMJUST
 70
     0
  9
$DIMSD1
 70
     0
  9
$DIMSD2
 70
     0
  9
$DIMTOLJ
 70
     0
  9
$DIMTZIN
 70
     1
  9
$DIMALTZ
 70
     0
  9
$DIMALTTZ
 70
     0
  9
$DIMUPT
 70
     0
  9
$DIMDEC
 70
     2
  9
$DIMTDEC
 70
     2
  9
$DIMALTU
 70
     2
  9
$DIMALTTD
 70
     3
  9
$DIMTXSTY
  7
Standard
  9
$DIMAUNIT
 70
     0
  9
$DIMADEC
 70
     2
  9
$DIMALTRND
 40
0.0
  9
$DIMAZIN
 70
     0
  9
$DIMDSEP
 70
    44
  9
$DIMATFIT
 70
     3
  9
$DIMFRAC
 70
     0
  9
$DIMLDRBLK
  1

  9
$DIMLUNIT
 70
     2
  9
$DIMLWD
 70
    -2
  9
$DIMLWE
 70
    -2
  9
$DIMTMOVE
 70
     0
  9
$LUNITS
 70
     2
  9
$LUPREC
 70
     2
  9
$SKETCHINC
 40
1.0
  9
$FILLETRAD
 40
0.0
  9
$AUNITS
 70
     0
  9
$AUPREC
 70
     2
  9
$MENU
  1
.
  9
$ELEVATION
 40
0.0
  9
$PELEVATION
 40
0.0
  9
$THICKNESS
 40
0.0
  9
$LIMCHECK
 70
     0
  9
$CHAMFERA
 40
0.0
  9
$CHAMFERB
 40
0.0
  9
$CHAMFERC
 40
0.0
  9
$CHAMFERD
 40
0.0
  9
$SKPOLY
 70
     0
  9
$TDCREATE
 40
2460733.495244572
  9
$TDUCREATE
 40
2460733.453577905
  9
$TDUPDATE
 40
2460733.495246227
  9
$TDUUPDATE
 40
2460733.453579561
  9
$TDINDWG
 40
0.0000000116
  9
$TDUSRTIMER
 40
0.0000000116
  9
$USRTIMER
 70
     1
  9
$ANGBASE
 50
0.0
  9
$ANGDIR
 70
     0
  9
$PDMODE
 70
     0
  9
$PDSIZE
 40
-1.0
  9
$PLINEWID
 40
0.0
  9
$SPLFRAME
 70
     0
  9
$SPLINETYPE
 70
     6
  9
$SPLINESEGS
 70
     8
  9
$HANDSEED
  5
216
  9
$SURFTAB1
 70
     6
  9
$SURFTAB2
 70
     6
  9
$SURFTYPE
 70
     6
  9
$SURFU
 70
     6
  9
$SURFV
 70
     6
  9
$UCSBASE
  2

  9
$UCSNAME
  2

  9
$UCSORG
 10
0.0
 20
0.0
 30
0.0
  9
$UCSXDIR
 10
1.0
 20
0.0
 30
0.0
  9
$UCSYDIR
 10
0.0
 20
1.0
 30
0.0
  9
$UCSORTHOREF
  2

  9
$UCSORTHOVIEW
 70
     0
  9
$UCSORGTOP
 10
0.0
 20
0.0
 30
0.0
  9
$UCSORGBOTTOM
 10
0.0
 20
0.0
 30
0.0
  9
$UCSORGLEFT
 10
0.0
 20
0.0
 30
0.0
  9
$UCSORGRIGHT
 10
0.0
 20
0.0
 30
0.0
  9
$UCSORGFRONT
 10
0.0
 20
0.0
 30
0.0
  9
$UCSORGBACK
 10
0.0
 20
0.0
 30
0.0
  9
$PUCSBASE
  2

  9
$PUCSNAME
  2

  9
$PUCSORG
 10
0.0
 20
0.0
 30
0.0
  9
$PUCSXDIR
 10
1.0
 20
0.0
 30
0.0
  9
$PUCSYDIR
 10
0.0
 20
1.0
 30
0.0
  9
$PUCSORTHOREF
  2

  9
$PUCSORTHOVIEW
 70
     0
  9
$PUCSORGTOP
 10
0.0
 20
0.0
 30
0.0
  9
$PUCSORGBOTTOM
 10
0.0
 20
0.0
 30
0.0
  9
$PUCSORGLEFT
 10
0.0
 20
0.0
 30
0.0
  9
$PUCSORGRIGHT
 10
0.0
 20
0.0
 30
0.0
  9
$PUCSORGFRONT
 10
0.0
 20
0.0
 30
0.0
  9
$PUCSORGBACK
 10
0.0
 20
0.0
 30
0.0
  9
$USERI1
 70
     0
  9
$USERI2
 70
     0
  9
$USERI3
 70
     0
  9
$USERI4
 70
     0
  9
$USERI5
 70
     0
  9
$USERR1
 40
0.0
  9
$USERR2
 40
0.0
  9
$USERR3
 40
0.0
  9
$USERR4
 40
0.0
  9
$USERR5
 40
0.0
  9
$WORLDVIEW
 70
     1
  9
$SHADEDGE
 70
     3
  9
$SHADEDIF
 70
    70
  9
$TILEMODE
 70
     1
  9
$MAXACTVP
 70
    64
  9
$PINSBASE
 10
0.0
 20
0.0
 30
0.0
  9
$PLIMCHECK
 70
     0
  9
$PEXTMIN
 10
1.0000000000E+20
 20
1.0000000000E+20
 30
1.0000000000E+20
  9
$PEXTMAX
 10
-1.0000000000E+20
 20
-1.0000000000E+20
 30
-1.0000000000E+20
  9
$PLIMMIN
 10
0.0
 20
0.0
  9
$PLIMMAX
 10
420.0
 20
297.0
  9
$UNITMODE
 70
     0
  9
$VISRETAIN
 70
     1
  9
$PLINEGEN
 70
     0
  9
$PSLTSCALE
 70
     1
  9
$TREEDEPTH
 70
  3020
  9
$CMLSTYLE
  2
Standard
  9
$CMLJUST
 70
     0
  9
$CMLSCALE
 40
20.0
  9
$PROXYGRAPHICS
 70
     1
  9
$MEASUREMENT
 70
     1
  9
$CELWEIGHT
370
    -1
  9
$ENDCAPS
280
     0
  9
$JOINSTYLE
280
     0
  9
$LWDISPLAY
290
     1
  9
$INSUNITS
 70
     4
  9
$HYPERLINKBASE
  1

  9
$STYLESHEET
  1

  9
$XEDIT
290
     1
  9
$CEPSNTYPE
380
     0
  9
$PSTYLEMODE
290
     1
  9
$FINGERPRINTGUID
  2
{86f99e21-9a57-4c40-b2e9-25f2437b79ba}
  9
$VERSIONGUID
  2
{FAEB1C32-E019-11D5-929B-00C0DF256EC4}
  9
$EXTNAMES
290
     1
  9
$PSVPSCALE
 40
0.0
  9
$OLESTARTUP
290
     0
  0
ENDSEC
  0
SECTION
  2
CLASSES
  0
CLASS
  1
ACDBDICTIONARYWDFLT
  2
AcDbDictionaryWithDefault
  3
ObjectDBX Classes
 90
        0
280
     0
281
     0
  0
CLASS
  1
VISUALSTYLE
  2
AcDbVisualStyle
  3
ObjectDBX Classes
 90
     4095
280
     0
281
     0
  0
CLASS
  1
MATERIAL
  2
AcDbMaterial
  3
ObjectDBX Classes
 90
     1153
280
     0
281
     0
  0
CLASS
  1
SCALE
  2
AcDbScale
  3
ObjectDBX Classes
 90
     1153
280
     0
281
     0
  0
CLASS
  1
TABLESTYLE
  2
AcDbTableStyle
  3
ObjectDBX Classes
 90
     4095
280
     0
281
     0
  0
CLASS
  1
MLEADERSTYLE
  2
AcDbMLeaderStyle
  3
ACDB_MLEADERSTYLE_CLASS
 90
     4095
280
     0
281
     0
  0
CLASS
  1
SUN
  2
AcDbSun
  3
SCENEOE
 90
     1153
280
     0
281
     0
  0
CLASS
  1
ACDBPLACEHOLDER
  2
AcDbPlaceHolder
  3
ObjectDBX Classes
 90
        0
280
     0
281
     0
  0
CLASS
  1
LAYOUT
  2
AcDbLayout
  3
ObjectDBX Classes
 90
        0
280
     0
281
     0
  0
ENDSEC
  0
SECTION
  2
TABLES
  0
TABLE
  2
VPORT
  5
8
330
0
100
AcDbSymbolTable
 70
     1
  0
VPORT
  5
29
330
8
100
AcDbSymbolTableRecord
100
AcDbViewportTableRecord
  2
*Active
 70
     0
 10
0.0
 20
0.0
 11
1.0
 21
1.0
 12
139.7
 22
107.95
 13
0.0
 23
0.0
 14
10.0
 24
10.0
 15
10.0
 25
10.0
 16
0.0
 26
0.0
 36
1.0
 17
0.0
 27
0.0
 37
0.0
 40
215.9
 41
1.2941176471
 42
50.0
 43
0.0
 44
0.0
 50
0.0
 51
0.0
 71
     0
 72
  2000
 73
     1
 74
     3
 75
     0
 76
     0
 77
     0
 78
     0
281
     0
 65
     1
110
0.0
120
0.0
130
0.0
111
1.0
121
0.0
131
0.0
112
0.0
122
1.0
132
0.0
 79
     0
146
0.0
  0
ENDTAB
  0
TABLE
  2
LTYPE
  5
5
330
0
100
AcDbSymbolTable
 70
     6
  0
LTYPE
  5
14
330
5
100
AcDbSymbolTableRecord
100
AcDbLinetypeTableRecord
  2
ByBlock
 70
     0
  3

 72
    65
 73
     0
 40
0.0
  0
LTYPE
  5
15
330
5
100
AcDbSymbolTableRecord
100
AcDbLinetypeTableRecord
  2
ByLayer
 70
     0
  3

 72
    65
 73
     0
 40
0.0
  0
LTYPE
  5
16
330
5
100
AcDbSymbolTableRecord
100
AcDbLinetypeTableRecord
  2
Continuous
 70
     0
  3
Solid line
 72
    65
 73
     0
 40
0.0
  0
LTYPE
  5
5E
330
5
100
AcDbSymbolTableRecord
100
AcDbLinetypeTableRecord
  2
HIDDEN
 70
     0
  3
Hidden __ __ __ __ __ __ __ __ __ __ __ __ __ __
 72
    65
 73
     2
 40
1.905
 49
1.27
 74
     0
 49
-0.635
 74
     0
  0
LTYPE
  5
5F
330
5
100
AcDbSymbolTableRecord
100
AcDbLinetypeTableRecord
  2
PHANTOM
 70
     0
  3
Phantom ______  __  __  ______  __  __  ______
 72
    65
 73
     6
 40
12.7
 49
6.35
 74
     0
 49
-1.27
 74
     0
 49
1.27
 74
     0
 49
-1.27
 74
     0
 49
1.27
 74
     0
 49
-1.27
 74
     0
  0
LTYPE
  5
60
330
5
100
AcDbSymbolTableRecord
100
AcDbLinetypeTableRecord
  2
CENTER
 70
     0
  3
Center ____ _ ____ _ ____ _ ____ _ ____ _ ____
 72
    65
 73
     4
 40
10.16
 49
6.35
 74
     0
 49
-1.27
 74
     0
 49
1.27
 74
     0
 49
-1.27
 74
     0
  0
LTYPE
  5
61
330
5
100
AcDbSymbolTableRecord
100
AcDbLinetypeTableRecord
  2
CENTERX2
 70
     0
  3
Center (2x) ________  __  ________  __  _____
 72
    65
 73
     4
 40
20.32
 49
12.7
 74
     0
 49
-2.54
 74
     0
 49
2.54
 74
     0
 49
-2.54
 74
     0
  0
LTYPE
  5
62
330
5
100
AcDbSymbolTableRecord
100
AcDbLinetypeTableRecord
  2
DOT2
 70
     0
  3
Dot (.5x) ........................................
 72
    65
 73
     2
 40
0.635
 49
0.0
 74
     0
 49
-0.635
 74
     0
  0
ENDTAB
  0
TABLE
  2
LAYER
  5
2
330
0
100
AcDbSymbolTable
 70
     2
  0
LAYER
  5
10
330
2
100
AcDbSymbolTableRecord
100
AcDbLayerTableRecord
  2
0
 70
     0
 62
     7
  6
Continuous
370
    -3
390
F
  0
LAYER
  5
63
330
2
100
AcDbSymbolTableRecord
100
AcDbLayerTableRecord
  2
FORMAT
 70
     0
 62
     7
  6
Continuous
370
    -3
390
F
  0
ENDTAB
  0
TABLE
  2
STYLE
  5
3
330
0
100
AcDbSymbolTable
 70
     5
  0
STYLE
  5
11
330
3
100
AcDbSymbolTableRecord
100
AcDbTextStyleTableRecord
  2
Standard
 70
     0
 40
0.0
 41
1.0
 50
0.0
 71
     0
 42
1.5
  3
txt
  4

  0
STYLE
  5
70
330
3
100
AcDbSymbolTableRecord
100
AcDbTextStyleTableRecord
  2
SLDTEXTSTYLE0
 70
     0
 40
0.0
 41
0.75
 50
0.0
 71
     0
 42
1.5
  3
TXT
  4

  0
STYLE
  5
131
330
3
100
AcDbSymbolTableRecord
100
AcDbTextStyleTableRecord
  2
SLDTEXTSTYLE1
 70
     0
 40
0.0
 41
0.6607142857
 50
0.0
 71
     0
 42
1.5
  3
TXT
  4

  0
STYLE
  5
139
330
3
100
AcDbSymbolTableRecord
100
AcDbTextStyleTableRecord
  2
SLDTEXTSTYLE2
 70
     0
 40
0.0
 41
0.6458333333
 50
0.0
 71
     0
 42
1.5
  3
TXT
  4

  0
STYLE
  5
212
330
3
100
AcDbSymbolTableRecord
100
AcDbTextStyleTableRecord
  2
SLDTEXTSTYLE3
 70
     0
 40
0.0
 41
0.7
 50
0.0
 71
     0
 42
1.5
  3
TXT
  4

  0
ENDTAB
  0
TABLE
  2
VIEW
  5
6
330
0
100
AcDbSymbolTable
 70
     0
  0
ENDTAB
  0
TABLE
  2
UCS
  5
7
330
0
100
AcDbSymbolTable
 70
     0
  0
ENDTAB
  0
TABLE
  2
APPID
  5
9
330
0
100
AcDbSymbolTable
 70
     1
  0
APPID
  5
12
330
9
100
AcDbSymbolTableRecord
100
AcDbRegAppTableRecord
  2
ACAD
 70
     0
  0
ENDTAB
  0
TABLE
  2
DIMSTYLE
  5
A
330
0
100
AcDbSymbolTable
 70
     3
100
AcDbDimStyleTable
  0
DIMSTYLE
105
27
330
A
100
AcDbSymbolTableRecord
100
AcDbDimStyleTableRecord
  2
ISO-25
 70
     0
 41
2.5
 42
0.625
 43
3.75
 44
1.25
 73
     0
 74
     0
 77
     1
 78
     8
140
2.5
141
2.5
143
0.0393700787
147
0.625
171
     3
172
     1
178
     0
271
     2
272
     2
274
     3
278
    44
283
     0
284
     8
340
11
  0
DIMSTYLE
105
EE
102
{ACAD_REACTORS
330
ED
330
F8
102
}
330
A
100
AcDbSymbolTableRecord
100
AcDbDimStyleTableRecord
  2
SLDDIMSTYLE0
 70
     0
 41
3.302
 44
0.0
 45
0.000000001
 73
     0
 74
     0
 77
     1
 78
    12
 79
     3
140
3.5
144
10.0
147
0.875
173
     1
178
     0
271
     2
272
     2
276
     2
284
    12
340
70
  0
DIMSTYLE
105
103
102
{ACAD_REACTORS
330
102
330
10F
330
119
330
125
102
}
330
A
100
AcDbSymbolTableRecord
100
AcDbDimStyleTableRecord
  2
SLDDIMSTYLE1
 70
     0
 41
3.302
 44
0.0
 45
0.000000001
 73
     0
 74
     0
 77
     1
 78
    12
 79
     3
140
3.5
144
10.0
147
0.875
172
     1
173
     1
178
     0
271
     2
272
     2
276
     2
284
    12
289
     0
340
70
  0
ENDTAB
  0
TABLE
  2
BLOCK_RECORD
  5
1
330
0
100
AcDbSymbolTable
 70
     7
  0
BLOCK_RECORD
  5
1F
330
1
100
AcDbSymbolTableRecord
100
AcDbBlockTableRecord
  2
*Model_Space
340
22
  0
BLOCK_RECORD
  5
1B
330
1
100
AcDbSymbolTableRecord
100
AcDbBlockTableRecord
  2
*Paper_Space
340
1E
  0
BLOCK_RECORD
  5
23
330
1
100
AcDbSymbolTableRecord
100
AcDbBlockTableRecord
  2
*Paper_Space0
340
26
  0
BLOCK_RECORD
  5
EF
330
1
100
AcDbSymbolTableRecord
100
AcDbBlockTableRecord
  2
_D
340
0
  0
BLOCK_RECORD
  5
F9
330
1
100
AcDbSymbolTableRecord
100
AcDbBlockTableRecord
  2
_D_1
340
0
  0
BLOCK_RECORD
  5
104
330
1
100
AcDbSymbolTableRecord
100
AcDbBlockTableRecord
  2
_D_2
340
0
  0
BLOCK_RECORD
  5
110
330
1
100
AcDbSymbolTableRecord
100
AcDbBlockTableRecord
  2
_D_3
340
0
  0
BLOCK_RECORD
  5
11A
330
1
100
AcDbSymbolTableRecord
100
AcDbBlockTableRecord
  2
_D_4
340
0
  0
BLOCK_RECORD
  5
126
330
1
100
AcDbSymbolTableRecord
100
AcDbBlockTableRecord
  2
_D_5
340
0
  0
ENDTAB
  0
ENDSEC
  0
SECTION
  2
BLOCKS
  0
BLOCK
  5
20
330
1F
100
AcDbEntity
  8
0
100
AcDbBlockBegin
  2
*Model_Space
 70
     0
 10
0.0
 20
0.0
 30
0.0
  3
*Model_Space
  1

  0
ENDBLK
  5
21
330
1F
100
AcDbEntity
  8
0
100
AcDbBlockEnd
  0
BLOCK
  5
1C
330
1B
100
AcDbEntity
 67
     1
  8
0
100
AcDbBlockBegin
  2
*Paper_Space
 70
     0
 10
0.0
 20
0.0
 30
0.0
  3
*Paper_Space
  1

  0
ENDBLK
  5
1D
330
1B
100
AcDbEntity
 67
     1
  8
0
100
AcDbBlockEnd
  0
BLOCK
  5
24
330
23
100
AcDbEntity
  8
0
100
AcDbBlockBegin
  2
*Paper_Space0
 70
     0
 10
0.0
 20
0.0
 30
0.0
  3
*Paper_Space0
  1

  0
ENDBLK
  5
25
330
23
100
AcDbEntity
  8
0
100
AcDbBlockEnd
  0
BLOCK
  5
F0
330
EF
100
AcDbEntity
  8
0
100
AcDbBlockBegin
  2
_D
 70
     0
 10
0.0
 20
0.0
 30
0.0
  3
_D
  1

  0
SOLID
  5
F2
330
EF
100
AcDbEntity
  8
0
  6
Continuous
 62
     7
370
    18
100
AcDbTrace
 10
47.8598235896
 20
96.2088121742
 30
0.0
 11
51.1618235896
 21
95.7008121742
 31
0.0
 12
51.1618235896
 22
96.7168121742
 32
0.0
 13
51.1618235896
 23
96.7168121742
 33
0.0
  0
SOLID
  5
F3
330
EF
100
AcDbEntity
  8
0
  6
Continuous
 62
     7
370
    18
100
AcDbTrace
 10
98.5447791818
 20
96.2088121742
 30
0.0
 11
95.2427791818
 21
96.7168121742
 31
0.0
 12
95.2427791818
 22
95.7008121742
 32
0.0
 13
95.2427791818
 23
95.7008121742
 33
0.0
  0
LINE
  5
F4
330
EF
100
AcDbEntity
  8
0
  6
Continuous
 62
     7
370
     0
100
AcDbLine
 10
47.8598235896
 20
120.7520006484
 30
0.0
 11
47.8598235896
 21
93.0338121742
 31
0.0
  0
LINE
  5
F5
330
EF
100
AcDbEntity
  8
0
  6
Continuous
 62
     7
370
     0
100
AcDbLine
 10
98.5447791818
 20
120.6348433609
 30
0.0
 11
98.5447791818
 21
93.0338121742
 31
0.0
  0
LINE
  5
F6
330
EF
100
AcDbEntity
  8
0
  6
Continuous
 62
     7
370
     0
100
AcDbLine
 10
47.8598235896
 20
96.2088121742
 30
0.0
 11
98.5447791818
 21
96.2088121742
 31
0.0
  0
MTEXT
  5
F7
330
EF
100
AcDbEntity
  8
0
  6
Continuous
 62
     7
370
    18
100
AcDbMText
 10
66.0904954289
 20
100.7205490888
 30
0.0
 40
3.5
 41
0.0
 71
     1
 72
     1
  1
506.85
  7
SLDTEXTSTYLE0
 73
     1
 44
1.0
  0
ENDBLK
  5
F1
330
EF
100
AcDbEntity
  8
0
100
AcDbBlockEnd
  0
BLOCK
  5
FA
330
F9
100
AcDbEntity
  8
0
100
AcDbBlockBegin
  2
_D_1
 70
     0
 10
0.0
 20
0.0
 30
0.0
  3
_D_1
  1

  0
SOLID
  5
FC
330
F9
100
AcDbEntity
  8
0
  6
Continuous
 62
     7
370
    18
100
AcDbTrace
 10
37.8598235896
 20
112.2088121742
 30
0.0
 11
38.3678235896
 21
115.5108121742
 31
0.0
 12
37.3518235896
 22
115.5108121742
 32
0.0
 13
37.3518235896
 23
115.5108121742
 33
0.0
  0
SOLID
  5
FD
330
F9
100
AcDbEntity
  8
0
  6
Continuous
 62
     7
370
    18
100
AcDbTrace
 10
37.8598235896
 20
177.4362455625
 30
0.0
 11
37.3518235896
 21
174.1342455625
 31
0.0
 12
38.3678235896
 22
174.1342455625
 32
0.0
 13
38.3678235896
 23
174.1342455625
 33
0.0
  0
LINE
  5
FE
330
F9
100
AcDbEntity
  8
0
  6
Continuous
 62
     7
370
     0
100
AcDbLine
 10
56.0030120638
 20
112.2088121742
 30
0.0
 11
34.6848235896
 21
112.2088121742
 31
0.0
  0
LINE
  5
FF
330
F9
100
AcDbEntity
  8
0
  6
Continuous
 62
     7
370
     0
100
AcDbLine
 10
56.0030120638
 20
177.4362455625
 30
0.0
 11
34.6848235896
 21
177.4362455625
 31
0.0
  0
LINE
  5
100
330
F9
100
AcDbEntity
  8
0
  6
Continuous
 62
     7
370
     0
100
AcDbLine
 10
37.8598235896
 20
112.2088121742
 30
0.0
 11
37.8598235896
 21
177.4362455625
 31
0.0
  0
MTEXT
  5
101
330
F9
100
AcDbEntity
  8
0
  6
Continuous
 62
     7
370
    18
100
AcDbMText
 10
33.348086675
 20
135.68188862
 30
0.0
 40
3.5
 41
0.0
 71
     1
 72
     1
  1
652.27
  7
SLDTEXTSTYLE0
 11
6.123233995736766E-17
 21
1.0
 31
0.0
 73
     1
 44
1.0
  0
ENDBLK
  5
FB
330
F9
100
AcDbEntity
  8
0
100
AcDbBlockEnd
  0
BLOCK
  5
105
330
104
100
AcDbEntity
  8
0
100
AcDbBlockBegin
  2
_D_2
 70
     0
 10
0.0
 20
0.0
 30
0.0
  3
_D_2
  1

  0
SOLID
  5
107
330
104
100
AcDbEntity
  8
0
  6
Continuous
 62
     7
370
    18
100
AcDbTrace
 10
113.3878000731
 20
119.9512899703
 30
0.0
 11
113.8958000731
 21
123.2532899703
 31
0.0
 12
112.8798000731
 22
123.2532899703
 32
0.0
 13
112.8798000731
 23
123.2532899703
 33
0.0
  0
SOLID
  5
108
330
104
100
AcDbEntity
  8
0
  6
Continuous
 62
     7
370
    18
100
AcDbTrace
 10
113.3878000731
 20
112.2088121742
 30
0.0
 11
112.8798000731
 21
108.9068121742
 31
0.0
 12
113.8958000731
 22
108.9068121742
 32
0.0
 13
113.8958000731
 23
108.9068121742
 33
0.0
  0
LINE
  5
109
330
104
100
AcDbEntity
  8
0
  6
Continuous
 62
     7
370
     0
100
AcDbLine
 10
97.7435402837
 20
119.9512899703
 30
0.0
 11
116.5628000731
 21
119.9512899703
 31
0.0
  0
LINE
  5
10A
330
104
100
AcDbEntity
  8
0
  6
Continuous
 62
     7
370
     0
100
AcDbLine
 10
90.5187479951
 20
112.2088121742
 30
0.0
 11
116.5628000731
 21
112.2088121742
 31
0.0
  0
LINE
  5
10B
330
104
100
AcDbEntity
  8
0
  6
Continuous
 62
     7
370
     0
100
AcDbLine
 10
113.3878000731
 20
119.9512899703
 30
0.0
 11
113.3878000731
 21
126.3012899703
 31
0.0
  0
LINE
  5
10C
330
104
100
AcDbEntity
  8
0
  6
Continuous
 62
     7
370
     0
100
AcDbLine
 10
113.3878000731
 20
119.9512899703
 30
0.0
 11
113.3878000731
 21
112.2088121742
 31
0.0
  0
LINE
  5
10D
330
104
100
AcDbEntity
  8
0
  6
Continuous
 62
     7
370
     0
100
AcDbLine
 10
113.3878000731
 20
112.2088121742
 30
0.0
 11
113.3878000731
 21
105.8588121742
 31
0.0
  0
MTEXT
  5
10E
330
104
100
AcDbEntity
  8
0
  6
Continuous
 62
     7
370
    18
100
AcDbMText
 10
108.8760631585
 20
110.8189152087
 30
0.0
 40
3.5
 41
0.0
 71
     1
 72
     1
  1
77.42
  7
SLDTEXTSTYLE0
 11
-7.044195017643634E-15
 21
1.0
 31
0.0
 73
     1
 44
1.0
  0
ENDBLK
  5
106
330
104
100
AcDbEntity
  8
0
100
AcDbBlockEnd
  0
BLOCK
  5
111
330
110
100
AcDbEntity
  8
0
100
AcDbBlockBegin
  2
_D_3
 70
     0
 10
0.0
 20
0.0
 30
0.0
  3
_D_3
  1

  0
SOLID
  5
113
330
110
100
AcDbEntity
  8
0
  6
Continuous
 62
     7
370
    18
100
AcDbTrace
 10
122.0411361835
 20
112.2088121742
 30
0.0
 11
122.5491361835
 21
115.5108121742
 31
0.0
 12
121.5331361835
 22
115.5108121742
 32
0.0
 13
121.5331361835
 23
115.5108121742
 33
0.0
  0
SOLID
  5
114
330
110
100
AcDbEntity
  8
0
  6
Continuous
 62
     7
370
    18
100
AcDbTrace
 10
122.0411361835
 20
140.5512899703
 30
0.0
 11
121.5331361835
 21
137.2492899703
 31
0.0
 12
122.5491361835
 22
137.2492899703
 32
0.0
 13
122.5491361835
 23
137.2492899703
 33
0.0
  0
LINE
  5
115
330
110
100
AcDbEntity
  8
0
  6
Continuous
 62
     7
370
     0
100
AcDbLine
 10
90.5187479951
 20
112.2088121742
 30
0.0
 11
125.2161361835
 21
112.2088121742
 31
0.0
  0
LINE
  5
116
330
110
100
AcDbEntity
  8
0
  6
Continuous
 62
     7
370
     0
100
AcDbLine
 10
99.8147791818
 20
140.5512899703
 30
0.0
 11
125.2161361835
 21
140.5512899703
 31
0.0
  0
LINE
  5
117
330
110
100
AcDbEntity
  8
0
  6
Continuous
 62
     7
370
     0
100
AcDbLine
 10
122.0411361835
 20
112.2088121742
 30
0.0
 11
122.0411361835
 21
140.5512899703
 31
0.0
  0
MTEXT
  5
118
330
110
100
AcDbEntity
  8
0
  6
Continuous
 62
     7
370
    18
100
AcDbMText
 10
117.5293992689
 20
121.9511626284
 30
0.0
 40
3.5
 41
0.0
 71
     1
 72
     1
  1
283.42
  7
SLDTEXTSTYLE0
 11
6.123233995736766E-17
 21
1.0
 31
0.0
 73
     1
 44
1.0
  0
ENDBLK
  5
112
330
110
100
AcDbEntity
  8
0
100
AcDbBlockEnd
  0
BLOCK
  5
11B
330
11A
100
AcDbEntity
  8
0
100
AcDbBlockBegin
  2
_D_4
 70
     0
 10
0.0
 20
0.0
 30
0.0
  3
_D_4
  1

  0
SOLID
  5
11D
330
11A
100
AcDbEntity
  8
0
  6
Continuous
 62
     7
370
    18
100
AcDbTrace
 10
98.5447791818
 20
183.33807829
 30
0.0
 11
101.8467791818
 21
182.83007829
 31
0.0
 12
101.8467791818
 22
183.84607829
 32
0.0
 13
101.8467791818
 23
183.84607829
 33
0.0
  0
SOLID
  5
11E
330
11A
100
AcDbEntity
  8
0
  6
Continuous
 62
     7
370
    18
100
AcDbTrace
 10
96.4735402837
 20
183.33807829
 30
0.0
 11
93.1715402837
 21
183.84607829
 31
0.0
 12
93.1715402837
 22
182.83007829
 32
0.0
 13
93.1715402837
 23
182.83007829
 33
0.0
  0
LINE
  5
11F
330
11A
100
AcDbEntity
  8
0
  6
Continuous
 62
     7
370
     0
100
AcDbLine
 10
98.5447791818
 20
168.8930570883
 30
0.0
 11
98.5447791818
 21
186.51307829
 31
0.0
  0
LINE
  5
120
330
11A
100
AcDbEntity
  8
0
  6
Continuous
 62
     7
370
     0
100
AcDbLine
 10
96.4735402837
 20
170.9637677664
 30
0.0
 11
96.4735402837
 21
186.51307829
 31
0.0
  0
LINE
  5
121
330
11A
100
AcDbEntity
  8
0
  6
Continuous
 62
     7
370
     0
100
AcDbLine
 10
98.5447791818
 20
183.33807829
 30
0.0
 11
104.8947791818
 21
183.33807829
 31
0.0
  0
LINE
  5
122
330
11A
100
AcDbEntity
  8
0
  6
Continuous
 62
     7
370
     0
100
AcDbLine
 10
98.5447791818
 20
183.33807829
 30
0.0
 11
96.4735402837
 21
183.33807829
 31
0.0
  0
LINE
  5
123
330
11A
100
AcDbEntity
  8
0
  6
Continuous
 62
     7
370
     0
100
AcDbLine
 10
96.4735402837
 20
183.33807829
 30
0.0
 11
90.1235402837
 21
183.33807829
 31
0.0
  0
MTEXT
  5
124
330
11A
100
AcDbEntity
  8
0
  6
Continuous
 62
     7
370
    18
100
AcDbMText
 10
92.6130765943
 20
187.8498152046
 30
0.0
 40
3.5
 41
0.0
 71
     1
 72
     1
  1
20.71
  7
SLDTEXTSTYLE0
 73
     1
 44
1.0
  0
ENDBLK
  5
11C
330
11A
100
AcDbEntity
  8
0
100
AcDbBlockEnd
  0
BLOCK
  5
127
330
126
100
AcDbEntity
  8
0
100
AcDbBlockBegin
  2
_D_5
 70
     0
 10
0.0
 20
0.0
 30
0.0
  3
_D_5
  1

  0
SOLID
  5
129
330
126
100
AcDbEntity
  8
0
  6
Continuous
 62
     7
370
    18
100
AcDbTrace
 10
91.2023013857
 20
103.6985299588
 30
0.0
 11
87.9003013857
 21
104.2065299588
 31
0.0
 12
87.9003013857
 22
103.1905299588
 32
0.0
 13
87.9003013857
 23
103.1905299588
 33
0.0
  0
SOLID
  5
12A
330
126
100
AcDbEntity
  8
0
  6
Continuous
 62
     7
370
    18
100
AcDbTrace
 10
98.5447791818
 20
103.6985299588
 30
0.0
 11
101.8467791818
 21
103.1905299588
 31
0.0
 12
101.8467791818
 22
104.2065299588
 32
0.0
 13
101.8467791818
 23
104.2065299588
 33
0.0
  0
LINE
  5
12B
330
126
100
AcDbEntity
  8
0
  6
Continuous
 62
     7
370
     0
100
AcDbLine
 10
91.2023013857
 20
113.0100510723
 30
0.0
 11
91.2023013857
 21
100.5235299588
 31
0.0
  0
LINE
  5
12C
330
126
100
AcDbEntity
  8
0
  6
Continuous
 62
     7
370
     0
100
AcDbLine
 10
98.5447791818
 20
120.6348433609
 30
0.0
 11
98.5447791818
 21
100.5235299588
 31
0.0
  0
LINE
  5
12D
330
126
100
AcDbEntity
  8
0
  6
Continuous
 62
     7
370
     0
100
AcDbLine
 10
91.2023013857
 20
103.6985299588
 30
0.0
 11
84.8523013857
 21
103.6985299588
 31
0.0
  0
LINE
  5
12E
330
126
100
AcDbEntity
  8
0
  6
Continuous
 62
     7
370
     0
100
AcDbLine
 10
91.2023013857
 20
103.6985299588
 30
0.0
 11
98.5447791818
 21
103.6985299588
 31
0.0
  0
LINE
  5
12F
330
126
100
AcDbEntity
  8
0
  6
Continuous
 62
     7
370
     0
100
AcDbLine
 10
98.5447791818
 20
103.6985299588
 30
0.0
 11
104.8947791818
 21
103.6985299588
 31
0.0
  0
MTEXT
  5
130
330
126
100
AcDbEntity
  8
0
  6
Continuous
 62
     7
370
    18
100
AcDbMText
 10
90.0233563979
 20
108.2102668733
 30
0.0
 40
3.5
 41
0.0
 71
     1
 72
     1
  1
73.42
  7
SLDTEXTSTYLE0
 73
     1
 44
1.0
  0
ENDBLK
  5
128
330
126
100
AcDbEntity
  8
0
100
AcDbBlockEnd
  0
ENDSEC
  0
SECTION
  2
ENTITIES
  0
LINE
  5
64
330
1F
100
AcDbEntity
  8
0
  6
Continuous
 62
     7
370
    50
100
AcDbLine
 10
12.7
 20
12.7
 30
0.0
 11
12.7
 21
203.2
 31
0.0
  0
LINE
  5
65
330
1F
100
AcDbEntity
  8
0
  6
Continuous
 62
     7
370
    50
100
AcDbLine
 10
12.7
 20
203.2
 30
0.0
 11
266.7
 21
203.2
 31
0.0
  0
LINE
  5
66
330
1F
100
AcDbEntity
  8
0
  6
Continuous
 62
     7
370
    50
100
AcDbLine
 10
266.7
 20
203.2
 30
0.0
 11
266.7
 21
12.7
 31
0.0
  0
LINE
  5
67
330
1F
100
AcDbEntity
  8
0
  6
Continuous
 62
     7
370
    50
100
AcDbLine
 10
266.7
 20
12.7
 30
0.0
 11
12.7
 21
12.7
 31
0.0
  0
LINE
  5
68
330
1F
100
AcDbEntity
  8
0
  6
Continuous
 62
     7
370
    25
100
AcDbLine
 10
3.175
 20
107.95
 30
0.0
 11
12.7
 21
107.95
 31
0.0
  0
LINE
  5
69
330
1F
100
AcDbEntity
  8
0
  6
Continuous
 62
     7
370
    25
100
AcDbLine
 10
139.7
 20
212.725
 30
0.0
 11
139.7
 21
203.2
 31
0.0
  0
LINE
  5
6A
330
1F
100
AcDbEntity
  8
0
  6
Continuous
 62
     7
370
    25
100
AcDbLine
 10
276.225
 20
107.95
 30
0.0
 11
266.7
 21
107.95
 31
0.0
  0
LINE
  5
6B
330
1F
100
AcDbEntity
  8
0
  6
Continuous
 62
     7
370
    25
100
AcDbLine
 10
139.7
 20
3.175
 30
0.0
 11
139.7
 21
12.7
 31
0.0
  0
LINE
  5
6C
330
1F
100
AcDbEntity
  8
0
  6
Continuous
 62
     7
370
    25
100
AcDbLine
 10
12.7
 20
107.95
 30
0.0
 11
3.175
 21
107.95
 31
0.0
  0
LINE
  5
6D
330
1F
100
AcDbEntity
  8
0
  6
Continuous
 62
     7
370
    25
100
AcDbLine
 10
266.7
 20
107.95
 30
0.0
 11
276.225
 21
107.95
 31
0.0
  0
LINE
  5
6E
330
1F
100
AcDbEntity
  8
0
  6
Continuous
 62
     7
370
    25
100
AcDbLine
 10
139.7
 20
203.2
 30
0.0
 11
139.7
 21
212.725
 31
0.0
  0
LINE
  5
6F
330
1F
100
AcDbEntity
  8
0
  6
Continuous
 62
     7
370
    25
100
AcDbLine
 10
139.7
 20
12.7
 30
0.0
 11
139.7
 21
3.175
 31
0.0
  0
MTEXT
  5
71
330
1F
100
AcDbEntity
  8
0
  6
Continuous
 62
     7
370
     0
100
AcDbMText
 10
6.4565833417
 20
57.9144503113
 30
0.0
 40
6.096
 41
0.0
 71
     2
 72
     1
  1
A
  7
SLDTEXTSTYLE0
 73
     1
 44
1.0
  0
MTEXT
  5
72
330
1F
100
AcDbEntity
  8
0
  6
Continuous
 62
     7
370
     0
100
AcDbMText
 10
272.4565833417
 20
57.9144503113
 30
0.0
 40
6.096
 41
0.0
 71
     2
 72
     1
  1
A
  7
SLDTEXTSTYLE0
 73
     1
 44
1.0
  0
MTEXT
  5
73
330
1F
100
AcDbEntity
  8
0
  6
Continuous
 62
     7
370
     0
100
AcDbMText
 10
6.6534332283
 20
165.8644503113
 30
0.0
 40
6.096
 41
0.0
 71
     2
 72
     1
  1
B
  7
SLDTEXTSTYLE0
 73
     1
 44
1.0
  0
MTEXT
  5
74
330
1F
100
AcDbEntity
  8
0
  6
Continuous
 62
     7
370
     0
100
AcDbMText
 10
272.6534332283
 20
165.8644503113
 30
0.0
 40
6.096
 41
0.0
 71
     2
 72
     1
  1
B
  7
SLDTEXTSTYLE0
 73
     1
 44
1.0
  0
MTEXT
  5
75
330
1F
100
AcDbEntity
  8
0
  6
Continuous
 62
     7
370
     0
100
AcDbMText
 10
69.7886166697
 20
9.6394503113
 30
0.0
 40
6.096
 41
0.0
 71
     2
 72
     1
  1
2
  7
SLDTEXTSTYLE0
 73
     1
 44
1.0
  0
MTEXT
  5
76
330
1F
100
AcDbEntity
  8
0
  6
Continuous
 62
     7
370
     0
100
AcDbMText
 10
69.7886166697
 20
213.1394503113
 30
0.0
 40
6.096
 41
0.0
 71
     2
 72
     1
  1
2
  7
SLDTEXTSTYLE0
 73
     1
 44
1.0
  0
MTEXT
  5
77
330
1F
100
AcDbEntity
  8
0
  6
Continuous
 62
     7
370
     0
100
AcDbMText
 10
209.4886166697
 20
9.6394503113
 30
0.0
 40
6.096
 41
0.0
 71
     2
 72
     1
  1
1
  7
SLDTEXTSTYLE0
 73
     1
 44
1.0
  0
MTEXT
  5
78
330
1F
100
AcDbEntity
  8
0
  6
Continuous
 62
     7
370
     0
100
AcDbMText
 10
209.4886166697
 20
213.1394503113
 30
0.0
 40
6.096
 41
0.0
 71
     2
 72
     1
  1
1
  7
SLDTEXTSTYLE0
 73
     1
 44
1.0
  0
LINE
  5
79
330
1F
100
AcDbEntity
  8
0
  6
Continuous
 62
     7
100
AcDbLine
 10
90.8023013857
 20
148.8581483174
 30
0.0
 11
55.6023013857
 21
148.8581483174
 31
0.0
  0
LINE
  5
7A
330
1F
100
AcDbEntity
  8
0
  6
Continuous
 62
     7
100
AcDbLine
 10
55.6023013857
 20
140.7869094193
 30
0.0
 11
90.8023013857
 21
140.7869094193
 31
0.0
  0
LINE
  5
7B
330
1F
100
AcDbEntity
  8
0
  6
HIDDEN
 62
     7
100
AcDbLine
 10
90.8023013857
 20
169.9293872154
 30
0.0
 11
55.6023013857
 21
169.9293872154
 31
0.0
  0
LINE
  5
7C
330
1F
100
AcDbEntity
  8
0
  6
HIDDEN
 62
     7
100
AcDbLine
 10
55.6023013857
 20
119.7156705213
 30
0.0
 11
90.8023013857
 21
119.7156705213
 31
0.0
  0
LINE
  5
7D
330
1F
100
AcDbEntity
  8
0
  6
HIDDEN
 62
     7
100
AcDbLine
 10
91.0379208347
 20
119.9512899703
 30
0.0
 11
91.0379208347
 21
140.5512899703
 31
0.0
  0
LINE
  5
7E
330
1F
100
AcDbEntity
  8
0
  6
Continuous
 62
     7
100
AcDbLine
 10
91.0379208347
 20
141.0225288684
 30
0.0
 11
91.0379208347
 21
148.6225288684
 31
0.0
  0
LINE
  5
7F
330
1F
100
AcDbEntity
  8
0
  6
HIDDEN
 62
     7
100
AcDbLine
 10
91.0379208347
 20
149.0937677664
 30
0.0
 11
91.0379208347
 21
169.6937677664
 31
0.0
  0
LINE
  5
80
330
1F
100
AcDbEntity
  8
0
  6
HIDDEN
 62
     7
100
AcDbLine
 10
55.3666819367
 20
140.5512899703
 30
0.0
 11
55.3666819367
 21
119.9512899703
 31
0.0
  0
LINE
  5
81
330
1F
100
AcDbEntity
  8
0
  6
Continuous
 62
     7
100
AcDbLine
 10
55.3666819367
 20
148.6225288684
 30
0.0
 11
55.3666819367
 21
141.0225288684
 31
0.0
  0
LINE
  5
82
330
1F
100
AcDbEntity
  8
0
  6
HIDDEN
 62
     7
100
AcDbLine
 10
55.3666819367
 20
169.6937677664
 30
0.0
 11
55.3666819367
 21
149.0937677664
 31
0.0
  0
LINE
  5
83
330
1F
100
AcDbEntity
  8
0
  6
HIDDEN
 62
     7
100
AcDbLine
 10
49.6954430386
 20
169.4584124273
 30
0.0
 11
49.6954430386
 21
149.0937677664
 31
0.0
  0
LINE
  5
84
330
1F
100
AcDbEntity
  8
0
  6
HIDDEN
 62
     7
100
AcDbLine
 10
96.7091597327
 20
149.0937677664
 30
0.0
 11
96.7091597327
 21
169.4584124273
 31
0.0
  0
LINE
  5
85
330
1F
100
AcDbEntity
  8
0
  6
HIDDEN
 62
     7
100
AcDbLine
 10
90.9669460466
 20
175.6006261135
 30
0.0
 11
55.4376567247
 21
175.6006261135
 31
0.0
  0
LINE
  5
86
330
1F
100
AcDbEntity
  8
0
  6
HIDDEN
 62
     7
100
AcDbLine
 10
49.6954430386
 20
140.5512899703
 30
0.0
 11
49.6954430386
 21
120.1866453094
 31
0.0
  0
LINE
  5
87
330
1F
100
AcDbEntity
  8
0
  6
HIDDEN
 62
     7
100
AcDbLine
 10
55.4376567247
 20
114.0444316233
 30
0.0
 11
91.0255246904
 21
114.0444316233
 31
0.0
  0
LINE
  5
88
330
1F
100
AcDbEntity
  8
0
  6
HIDDEN
 62
     7
100
AcDbLine
 10
96.7091597327
 20
120.1280666656
 30
0.0
 11
96.7091597327
 21
140.5512899703
 31
0.0
  0
LINE
  5
89
330
1F
100
AcDbEntity
  8
0
  6
Continuous
 62
     7
370
    25
100
AcDbLine
 10
76.1923013857
 20
172.3250066644
 30
0.0
 11
76.7123013857
 21
172.3250066644
 31
0.0
  0
LINE
  5
8A
330
1F
100
AcDbEntity
  8
0
  6
Continuous
 62
     7
370
    25
100
AcDbLine
 10
76.1923013857
 20
172.1050066644
 30
0.0
 11
76.1923013857
 21
172.3250066644
 31
0.0
  0
LINE
  5
8B
330
1F
100
AcDbEntity
  8
0
  6
Continuous
 62
     7
370
    25
100
AcDbLine
 10
76.7123013857
 20
172.1050066644
 30
0.0
 11
76.1923013857
 21
172.1050066644
 31
0.0
  0
LINE
  5
8C
330
1F
100
AcDbEntity
  8
0
  6
Continuous
 62
     7
370
    25
100
AcDbLine
 10
76.7123013857
 20
172.3250066644
 30
0.0
 11
76.7123013857
 21
172.1050066644
 31
0.0
  0
LINE
  5
8D
330
1F
100
AcDbEntity
  8
0
  6
Continuous
 62
     7
370
    25
100
AcDbLine
 10
83.4423013857
 20
172.3250066644
 30
0.0
 11
83.9623013857
 21
172.3250066644
 31
0.0
  0
LINE
  5
8E
330
1F
100
AcDbEntity
  8
0
  6
Continuous
 62
     7
370
    25
100
AcDbLine
 10
83.4423013857
 20
172.1050066644
 30
0.0
 11
83.4423013857
 21
172.3250066644
 31
0.0
  0
LINE
  5
8F
330
1F
100
AcDbEntity
  8
0
  6
Continuous
 62
     7
370
    25
100
AcDbLine
 10
83.9623013857
 20
172.1050066644
 30
0.0
 11
83.4423013857
 21
172.1050066644
 31
0.0
  0
LINE
  5
90
330
1F
100
AcDbEntity
  8
0
  6
Continuous
 62
     7
370
    25
100
AcDbLine
 10
83.9623013857
 20
172.3250066644
 30
0.0
 11
83.9623013857
 21
172.1050066644
 31
0.0
  0
LINE
  5
91
330
1F
100
AcDbEntity
  8
0
  6
Continuous
 62
     7
370
    25
100
AcDbLine
 10
62.9623013857
 20
172.3250066644
 30
0.0
 11
62.4423013857
 21
172.3250066644
 31
0.0
  0
LINE
  5
92
330
1F
100
AcDbEntity
  8
0
  6
Continuous
 62
     7
370
    25
100
AcDbLine
 10
62.4423013857
 20
172.3250066644
 30
0.0
 11
62.4423013857
 21
172.1050066644
 31
0.0
  0
LINE
  5
93
330
1F
100
AcDbEntity
  8
0
  6
Continuous
 62
     7
370
    25
100
AcDbLine
 10
62.4423013857
 20
172.1050066644
 30
0.0
 11
62.9623013857
 21
172.1050066644
 31
0.0
  0
LINE
  5
94
330
1F
100
AcDbEntity
  8
0
  6
Continuous
 62
     7
370
    25
100
AcDbLine
 10
62.9623013857
 20
172.1050066644
 30
0.0
 11
62.9623013857
 21
172.3250066644
 31
0.0
  0
LINE
  5
95
330
1F
100
AcDbEntity
  8
0
  6
Continuous
 62
     7
370
    25
100
AcDbLine
 10
70.2123013857
 20
172.3250066644
 30
0.0
 11
69.6923013857
 21
172.3250066644
 31
0.0
  0
LINE
  5
96
330
1F
100
AcDbEntity
  8
0
  6
Continuous
 62
     7
370
    25
100
AcDbLine
 10
69.6923013857
 20
172.3250066644
 30
0.0
 11
69.6923013857
 21
172.1050066644
 31
0.0
  0
LINE
  5
97
330
1F
100
AcDbEntity
  8
0
  6
Continuous
 62
     7
370
    25
100
AcDbLine
 10
69.6923013857
 20
172.1050066644
 30
0.0
 11
70.2123013857
 21
172.1050066644
 31
0.0
  0
LINE
  5
98
330
1F
100
AcDbEntity
  8
0
  6
Continuous
 62
     7
370
    25
100
AcDbLine
 10
70.2123013857
 20
172.1050066644
 30
0.0
 11
70.2123013857
 21
172.3250066644
 31
0.0
  0
LINE
  5
99
330
1F
100
AcDbEntity
  8
0
  6
Continuous
 62
     7
370
    25
100
AcDbLine
 10
76.7123013857
 20
117.3200510723
 30
0.0
 11
76.1923013857
 21
117.3200510723
 31
0.0
  0
LINE
  5
9A
330
1F
100
AcDbEntity
  8
0
  6
Continuous
 62
     7
370
    25
100
AcDbLine
 10
76.7123013857
 20
117.5400510723
 30
0.0
 11
76.7123013857
 21
117.3200510723
 31
0.0
  0
LINE
  5
9B
330
1F
100
AcDbEntity
  8
0
  6
Continuous
 62
     7
370
    25
100
AcDbLine
 10
76.1923013857
 20
117.5400510723
 30
0.0
 11
76.7123013857
 21
117.5400510723
 31
0.0
  0
LINE
  5
9C
330
1F
100
AcDbEntity
  8
0
  6
Continuous
 62
     7
370
    25
100
AcDbLine
 10
76.1923013857
 20
117.3200510723
 30
0.0
 11
76.1923013857
 21
117.5400510723
 31
0.0
  0
LINE
  5
9D
330
1F
100
AcDbEntity
  8
0
  6
Continuous
 62
     7
370
    25
100
AcDbLine
 10
70.2123013857
 20
117.3200510723
 30
0.0
 11
69.6923013857
 21
117.3200510723
 31
0.0
  0
LINE
  5
9E
330
1F
100
AcDbEntity
  8
0
  6
Continuous
 62
     7
370
    25
100
AcDbLine
 10
70.2123013857
 20
117.5400510723
 30
0.0
 11
70.2123013857
 21
117.3200510723
 31
0.0
  0
LINE
  5
9F
330
1F
100
AcDbEntity
  8
0
  6
Continuous
 62
     7
370
    25
100
AcDbLine
 10
69.6923013857
 20
117.5400510723
 30
0.0
 11
70.2123013857
 21
117.5400510723
 31
0.0
  0
LINE
  5
A0
330
1F
100
AcDbEntity
  8
0
  6
Continuous
 62
     7
370
    25
100
AcDbLine
 10
69.6923013857
 20
117.3200510723
 30
0.0
 11
69.6923013857
 21
117.5400510723
 31
0.0
  0
LINE
  5
A1
330
1F
100
AcDbEntity
  8
0
  6
Continuous
 62
     7
370
    25
100
AcDbLine
 10
62.9623013857
 20
117.3200510723
 30
0.0
 11
62.4423013857
 21
117.3200510723
 31
0.0
  0
LINE
  5
A2
330
1F
100
AcDbEntity
  8
0
  6
Continuous
 62
     7
370
    25
100
AcDbLine
 10
62.9623013857
 20
117.5400510723
 30
0.0
 11
62.9623013857
 21
117.3200510723
 31
0.0
  0
LINE
  5
A3
330
1F
100
AcDbEntity
  8
0
  6
Continuous
 62
     7
370
    25
100
AcDbLine
 10
62.4423013857
 20
117.5400510723
 30
0.0
 11
62.9623013857
 21
117.5400510723
 31
0.0
  0
LINE
  5
A4
330
1F
100
AcDbEntity
  8
0
  6
Continuous
 62
     7
370
    25
100
AcDbLine
 10
62.4423013857
 20
117.3200510723
 30
0.0
 11
62.4423013857
 21
117.5400510723
 31
0.0
  0
LINE
  5
A5
330
1F
100
AcDbEntity
  8
0
  6
Continuous
 62
     7
370
    25
100
AcDbLine
 10
83.9623013857
 20
117.3200510723
 30
0.0
 11
83.4423013857
 21
117.3200510723
 31
0.0
  0
LINE
  5
A6
330
1F
100
AcDbEntity
  8
0
  6
Continuous
 62
     7
370
    25
100
AcDbLine
 10
83.9623013857
 20
117.5400510723
 30
0.0
 11
83.9623013857
 21
117.3200510723
 31
0.0
  0
LINE
  5
A7
330
1F
100
AcDbEntity
  8
0
  6
Continuous
 62
     7
370
    25
100
AcDbLine
 10
83.4423013857
 20
117.5400510723
 30
0.0
 11
83.9623013857
 21
117.5400510723
 31
0.0
  0
LINE
  5
A8
330
1F
100
AcDbEntity
  8
0
  6
Continuous
 62
     7
370
    25
100
AcDbLine
 10
83.4423013857
 20
117.3200510723
 30
0.0
 11
83.4423013857
 21
117.5400510723
 31
0.0
  0
LINE
  5
A9
330
1F
100
AcDbEntity
  8
0
  6
Continuous
 62
     7
370
    25
100
AcDbLine
 10
98.5447791818
 20
140.5512899703
 30
0.0
 11
90.8023013857
 21
140.5512899703
 31
0.0
  0
LINE
  5
AA
330
1F
100
AcDbEntity
  8
0
  6
Continuous
 62
     7
370
    25
100
AcDbLine
 10
98.5447791818
 20
121.9048433609
 30
0.0
 11
98.5447791818
 21
140.5512899703
 31
0.0
  0
LINE
  5
AB
330
1F
100
AcDbEntity
  8
0
  6
Continuous
 62
     7
370
    25
100
AcDbLine
 10
98.5447791818
 20
121.9048433609
 30
0.0
 11
96.9447791818
 21
120.3048433609
 31
0.0
  0
LINE
  5
AC
330
1F
100
AcDbEntity
  8
0
  6
Continuous
 62
     7
370
    25
100
AcDbLine
 10
96.9447791818
 20
120.3048433609
 30
0.0
 11
96.4735402837
 21
119.9512899703
 31
0.0
  0
LINE
  5
AD
330
1F
100
AcDbEntity
  8
0
  6
Continuous
 62
     7
370
    25
100
AcDbLine
 10
90.8023013857
 20
119.9512899703
 30
0.0
 11
96.4735402837
 21
119.9512899703
 31
0.0
  0
LINE
  5
AE
330
1F
100
AcDbEntity
  8
0
  6
Continuous
 62
     7
370
    25
100
AcDbLine
 10
90.8023013857
 20
119.9512899703
 30
0.0
 11
90.8023013857
 21
119.4800510723
 31
0.0
  0
LINE
  5
AF
330
1F
100
AcDbEntity
  8
0
  6
Continuous
 62
     7
370
    25
100
AcDbLine
 10
90.8023013857
 20
119.4800510723
 30
0.0
 11
91.2023013857
 21
119.4800510723
 31
0.0
  0
LINE
  5
B0
330
1F
100
AcDbEntity
  8
0
  6
Continuous
 62
     7
370
    25
100
AcDbLine
 10
91.2023013857
 20
117.5400510723
 30
0.0
 11
91.2023013857
 21
119.4800510723
 31
0.0
  0
LINE
  5
B1
330
1F
100
AcDbEntity
  8
0
  6
Continuous
 62
     7
370
    25
100
AcDbLine
 10
90.6923013857
 20
117.5400510723
 30
0.0
 11
91.2023013857
 21
117.5400510723
 31
0.0
  0
LINE
  5
B2
330
1F
100
AcDbEntity
  8
0
  6
Continuous
 62
     7
370
    25
100
AcDbLine
 10
90.6923013857
 20
117.3200510723
 30
0.0
 11
90.6923013857
 21
117.5400510723
 31
0.0
  0
LINE
  5
B3
330
1F
100
AcDbEntity
  8
0
  6
Continuous
 62
     7
370
    25
100
AcDbLine
 10
91.2023013857
 20
117.3200510723
 30
0.0
 11
90.6923013857
 21
117.3200510723
 31
0.0
  0
LINE
  5
B4
330
1F
100
AcDbEntity
  8
0
  6
Continuous
 62
     7
370
    25
100
AcDbLine
 10
91.2023013857
 20
114.2800510723
 30
0.0
 11
91.2023013857
 21
117.3200510723
 31
0.0
  0
LINE
  5
B5
330
1F
100
AcDbEntity
  8
0
  6
Continuous
 62
     7
370
    25
100
AcDbLine
 10
91.2023013857
 20
114.2800510723
 30
0.0
 11
90.8487479951
 21
113.8088121742
 31
0.0
  0
LINE
  5
B6
330
1F
100
AcDbEntity
  8
0
  6
Continuous
 62
     7
370
    25
100
AcDbLine
 10
90.8487479951
 20
113.8088121742
 30
0.0
 11
89.2487479951
 21
112.2088121742
 31
0.0
  0
LINE
  5
B7
330
1F
100
AcDbEntity
  8
0
  6
Continuous
 62
     7
370
    25
100
AcDbLine
 10
57.2730120638
 20
112.2088121742
 30
0.0
 11
89.2487479951
 21
112.2088121742
 31
0.0
  0
LINE
  5
B8
330
1F
100
AcDbEntity
  8
0
  6
Continuous
 62
     7
370
    25
100
AcDbLine
 10
57.2730120638
 20
112.2088121742
 30
0.0
 11
55.6730120638
 21
113.8088121742
 31
0.0
  0
LINE
  5
B9
330
1F
100
AcDbEntity
  8
0
  6
Continuous
 62
     7
370
    25
100
AcDbLine
 10
55.6730120638
 20
113.8088121742
 30
0.0
 11
55.2023013857
 21
114.2800510723
 31
0.0
  0
LINE
  5
BA
330
1F
100
AcDbEntity
  8
0
  6
Continuous
 62
     7
370
    25
100
AcDbLine
 10
55.2023013857
 20
117.3200510723
 30
0.0
 11
55.2023013857
 21
114.2800510723
 31
0.0
  0
LINE
  5
BB
330
1F
100
AcDbEntity
  8
0
  6
Continuous
 62
     7
370
    25
100
AcDbLine
 10
55.7123013857
 20
117.3200510723
 30
0.0
 11
55.2023013857
 21
117.3200510723
 31
0.0
  0
LINE
  5
BC
330
1F
100
AcDbEntity
  8
0
  6
Continuous
 62
     7
370
    25
100
AcDbLine
 10
55.7123013857
 20
117.5400510723
 30
0.0
 11
55.7123013857
 21
117.3200510723
 31
0.0
  0
LINE
  5
BD
330
1F
100
AcDbEntity
  8
0
  6
Continuous
 62
     7
370
    25
100
AcDbLine
 10
55.2023013857
 20
117.5400510723
 30
0.0
 11
55.7123013857
 21
117.5400510723
 31
0.0
  0
LINE
  5
BE
330
1F
100
AcDbEntity
  8
0
  6
Continuous
 62
     7
370
    25
100
AcDbLine
 10
55.2023013857
 20
119.4800510723
 30
0.0
 11
55.2023013857
 21
117.5400510723
 31
0.0
  0
LINE
  5
BF
330
1F
100
AcDbEntity
  8
0
  6
Continuous
 62
     7
370
    25
100
AcDbLine
 10
55.2023013857
 20
119.4800510723
 30
0.0
 11
55.6023013857
 21
119.4800510723
 31
0.0
  0
LINE
  5
C0
330
1F
100
AcDbEntity
  8
0
  6
Continuous
 62
     7
370
    25
100
AcDbLine
 10
55.6023013857
 20
119.4800510723
 30
0.0
 11
55.6023013857
 21
119.9512899703
 31
0.0
  0
LINE
  5
C1
330
1F
100
AcDbEntity
  8
0
  6
Continuous
 62
     7
370
    25
100
AcDbLine
 10
49.9310624876
 20
119.9512899703
 30
0.0
 11
55.6023013857
 21
119.9512899703
 31
0.0
  0
LINE
  5
C2
330
1F
100
AcDbEntity
  8
0
  6
Continuous
 62
     7
370
    25
100
AcDbLine
 10
49.9310624876
 20
119.9512899703
 30
0.0
 11
49.4598235896
 21
120.4220006484
 31
0.0
  0
LINE
  5
C3
330
1F
100
AcDbEntity
  8
0
  6
Continuous
 62
     7
370
    25
100
AcDbLine
 10
49.4598235896
 20
120.4220006484
 30
0.0
 11
47.8598235896
 21
122.0220006484
 31
0.0
  0
LINE
  5
C4
330
1F
100
AcDbEntity
  8
0
  6
Continuous
 62
     7
370
    25
100
AcDbLine
 10
47.8598235896
 20
140.5512899703
 30
0.0
 11
47.8598235896
 21
122.0220006484
 31
0.0
  0
LINE
  5
C5
330
1F
100
AcDbEntity
  8
0
  6
Continuous
 62
     7
370
    25
100
AcDbLine
 10
55.6023013857
 20
140.5512899703
 30
0.0
 11
47.8598235896
 21
140.5512899703
 31
0.0
  0
LINE
  5
C6
330
1F
100
AcDbEntity
  8
0
  6
Continuous
 62
     7
370
    25
100
AcDbLine
 10
55.6023013857
 20
140.5512899703
 30
0.0
 11
55.6023013857
 21
141.0225288684
 31
0.0
  0
LINE
  5
C7
330
1F
100
AcDbEntity
  8
0
  6
Continuous
 62
     7
370
    25
100
AcDbLine
 10
55.6023013857
 20
141.0225288684
 30
0.0
 11
51.8155397648
 21
141.0225288684
 31
0.0
  0
LINE
  5
C8
330
1F
100
AcDbEntity
  8
0
  6
Continuous
 62
     7
370
    25
100
AcDbLine
 10
51.8155397648
 20
148.6225288684
 30
0.0
 11
51.8155397648
 21
141.0225288684
 31
0.0
  0
LINE
  5
C9
330
1F
100
AcDbEntity
  8
0
  6
Continuous
 62
     7
370
    25
100
AcDbLine
 10
51.8155397648
 20
148.6225288684
 30
0.0
 11
55.6023013857
 21
148.6225288684
 31
0.0
  0
LINE
  5
CA
330
1F
100
AcDbEntity
  8
0
  6
Continuous
 62
     7
370
    25
100
AcDbLine
 10
55.6023013857
 20
148.6225288684
 30
0.0
 11
55.6023013857
 21
149.0937677664
 31
0.0
  0
LINE
  5
CB
330
1F
100
AcDbEntity
  8
0
  6
Continuous
 62
     7
370
    25
100
AcDbLine
 10
47.8598235896
 20
149.0937677664
 30
0.0
 11
55.6023013857
 21
149.0937677664
 31
0.0
  0
LINE
  5
CC
330
1F
100
AcDbEntity
  8
0
  6
Continuous
 62
     7
370
    25
100
AcDbLine
 10
47.8598235896
 20
167.6230570883
 30
0.0
 11
47.8598235896
 21
149.0937677664
 31
0.0
  0
LINE
  5
CD
330
1F
100
AcDbEntity
  8
0
  6
Continuous
 62
     7
370
    25
100
AcDbLine
 10
47.8598235896
 20
167.6230570883
 30
0.0
 11
49.4598235896
 21
169.2230570883
 31
0.0
  0
LINE
  5
CE
330
1F
100
AcDbEntity
  8
0
  6
Continuous
 62
     7
370
    25
100
AcDbLine
 10
49.4598235896
 20
169.2230570883
 30
0.0
 11
49.9310624876
 21
169.6937677664
 31
0.0
  0
LINE
  5
CF
330
1F
100
AcDbEntity
  8
0
  6
Continuous
 62
     7
370
    25
100
AcDbLine
 10
55.6023013857
 20
169.6937677664
 30
0.0
 11
49.9310624876
 21
169.6937677664
 31
0.0
  0
LINE
  5
D0
330
1F
100
AcDbEntity
  8
0
  6
Continuous
 62
     7
370
    25
100
AcDbLine
 10
55.6023013857
 20
169.6937677664
 30
0.0
 11
55.6023013857
 21
170.1650066644
 31
0.0
  0
LINE
  5
D1
330
1F
100
AcDbEntity
  8
0
  6
Continuous
 62
     7
370
    25
100
AcDbLine
 10
55.6023013857
 20
170.1650066644
 30
0.0
 11
55.2023013857
 21
170.1650066644
 31
0.0
  0
LINE
  5
D2
330
1F
100
AcDbEntity
  8
0
  6
Continuous
 62
     7
370
    25
100
AcDbLine
 10
55.2023013857
 20
172.1050066644
 30
0.0
 11
55.2023013857
 21
170.1650066644
 31
0.0
  0
LINE
  5
D3
330
1F
100
AcDbEntity
  8
0
  6
Continuous
 62
     7
370
    25
100
AcDbLine
 10
55.2023013857
 20
172.1050066644
 30
0.0
 11
55.7123013857
 21
172.1050066644
 31
0.0
  0
LINE
  5
D4
330
1F
100
AcDbEntity
  8
0
  6
Continuous
 62
     7
370
    25
100
AcDbLine
 10
55.7123013857
 20
172.1050066644
 30
0.0
 11
55.7123013857
 21
172.3250066644
 31
0.0
  0
LINE
  5
D5
330
1F
100
AcDbEntity
  8
0
  6
Continuous
 62
     7
370
    25
100
AcDbLine
 10
55.7123013857
 20
172.3250066644
 30
0.0
 11
55.2023013857
 21
172.3250066644
 31
0.0
  0
LINE
  5
D6
330
1F
100
AcDbEntity
  8
0
  6
Continuous
 62
     7
370
    25
100
AcDbLine
 10
55.2023013857
 20
175.3650066644
 30
0.0
 11
55.2023013857
 21
172.3250066644
 31
0.0
  0
LINE
  5
D7
330
1F
100
AcDbEntity
  8
0
  6
Continuous
 62
     7
370
    25
100
AcDbLine
 10
55.2023013857
 20
175.3650066644
 30
0.0
 11
55.6730120638
 21
175.8362455625
 31
0.0
  0
LINE
  5
D8
330
1F
100
AcDbEntity
  8
0
  6
Continuous
 62
     7
370
    25
100
AcDbLine
 10
55.6730120638
 20
175.8362455625
 30
0.0
 11
57.2730120638
 21
177.4362455625
 31
0.0
  0
LINE
  5
D9
330
1F
100
AcDbEntity
  8
0
  6
Continuous
 62
     7
370
    25
100
AcDbLine
 10
89.1315907076
 20
177.4362455625
 30
0.0
 11
57.2730120638
 21
177.4362455625
 31
0.0
  0
LINE
  5
DA
330
1F
100
AcDbEntity
  8
0
  6
Continuous
 62
     7
370
    25
100
AcDbLine
 10
89.1315907076
 20
177.4362455625
 30
0.0
 11
90.7315907076
 21
175.8362455625
 31
0.0
  0
LINE
  5
DB
330
1F
100
AcDbEntity
  8
0
  6
Continuous
 62
     7
370
    25
100
AcDbLine
 10
90.7315907076
 20
175.8362455625
 30
0.0
 11
91.2023013857
 21
175.3650066644
 31
0.0
  0
LINE
  5
DC
330
1F
100
AcDbEntity
  8
0
  6
Continuous
 62
     7
370
    25
100
AcDbLine
 10
91.2023013857
 20
172.3250066644
 30
0.0
 11
91.2023013857
 21
175.3650066644
 31
0.0
  0
LINE
  5
DD
330
1F
100
AcDbEntity
  8
0
  6
Continuous
 62
     7
370
    25
100
AcDbLine
 10
90.6923013857
 20
172.3250066644
 30
0.0
 11
91.2023013857
 21
172.3250066644
 31
0.0
  0
LINE
  5
DE
330
1F
100
AcDbEntity
  8
0
  6
Continuous
 62
     7
370
    25
100
AcDbLine
 10
90.6923013857
 20
172.1050066644
 30
0.0
 11
90.6923013857
 21
172.3250066644
 31
0.0
  0
LINE
  5
DF
330
1F
100
AcDbEntity
  8
0
  6
Continuous
 62
     7
370
    25
100
AcDbLine
 10
91.2023013857
 20
172.1050066644
 30
0.0
 11
90.6923013857
 21
172.1050066644
 31
0.0
  0
LINE
  5
E0
330
1F
100
AcDbEntity
  8
0
  6
Continuous
 62
     7
370
    25
100
AcDbLine
 10
91.2023013857
 20
170.1650066644
 30
0.0
 11
91.2023013857
 21
172.1050066644
 31
0.0
  0
LINE
  5
E1
330
1F
100
AcDbEntity
  8
0
  6
Continuous
 62
     7
370
    25
100
AcDbLine
 10
91.2023013857
 20
170.1650066644
 30
0.0
 11
90.8023013857
 21
170.1650066644
 31
0.0
  0
LINE
  5
E2
330
1F
100
AcDbEntity
  8
0
  6
Continuous
 62
     7
370
    25
100
AcDbLine
 10
90.8023013857
 20
170.1650066644
 30
0.0
 11
90.8023013857
 21
169.6937677664
 31
0.0
  0
LINE
  5
E3
330
1F
100
AcDbEntity
  8
0
  6
Continuous
 62
     7
370
    25
100
AcDbLine
 10
96.4735402837
 20
169.6937677664
 30
0.0
 11
90.8023013857
 21
169.6937677664
 31
0.0
  0
LINE
  5
E4
330
1F
100
AcDbEntity
  8
0
  6
Continuous
 62
     7
370
    25
100
AcDbLine
 10
96.4735402837
 20
169.6937677664
 30
0.0
 11
96.9447791818
 21
169.2230570883
 31
0.0
  0
LINE
  5
E5
330
1F
100
AcDbEntity
  8
0
  6
Continuous
 62
     7
370
    25
100
AcDbLine
 10
96.9447791818
 20
169.2230570883
 30
0.0
 11
98.5447791818
 21
167.6230570883
 31
0.0
  0
LINE
  5
E6
330
1F
100
AcDbEntity
  8
0
  6
Continuous
 62
     7
370
    25
100
AcDbLine
 10
98.5447791818
 20
149.0937677664
 30
0.0
 11
98.5447791818
 21
167.6230570883
 31
0.0
  0
LINE
  5
E7
330
1F
100
AcDbEntity
  8
0
  6
Continuous
 62
     7
370
    25
100
AcDbLine
 10
90.8023013857
 20
149.0937677664
 30
0.0
 11
98.5447791818
 21
149.0937677664
 31
0.0
  0
LINE
  5
E8
330
1F
100
AcDbEntity
  8
0
  6
Continuous
 62
     7
370
    25
100
AcDbLine
 10
90.8023013857
 20
149.0937677664
 30
0.0
 11
90.8023013857
 21
148.6225288684
 31
0.0
  0
LINE
  5
E9
330
1F
100
AcDbEntity
  8
0
  6
Continuous
 62
     7
370
    25
100
AcDbLine
 10
90.8023013857
 20
148.6225288684
 30
0.0
 11
97.0735402837
 21
148.6225288684
 31
0.0
  0
LINE
  5
EA
330
1F
100
AcDbEntity
  8
0
  6
Continuous
 62
     7
370
    25
100
AcDbLine
 10
97.0735402837
 20
141.0225288684
 30
0.0
 11
97.0735402837
 21
148.6225288684
 31
0.0
  0
LINE
  5
EB
330
1F
100
AcDbEntity
  8
0
  6
Continuous
 62
     7
370
    25
100
AcDbLine
 10
97.0735402837
 20
141.0225288684
 30
0.0
 11
90.8023013857
 21
141.0225288684
 31
0.0
  0
LINE
  5
EC
330
1F
100
AcDbEntity
  8
0
  6
Continuous
 62
     7
370
    25
100
AcDbLine
 10
90.8023013857
 20
141.0225288684
 30
0.0
 11
90.8023013857
 21
140.5512899703
 31
0.0
  0
DIMENSION
  5
ED
330
1F
100
AcDbEntity
  8
0
  6
Continuous
 62
     7
370
    18
100
AcDbDimension
  2
_D
 10
98.5447791818
 20
96.2088121742
 30
0.0
 11
73.2023013857
 21
96.2088121742
 31
0.0
 70
   160
  1
<>
 71
     2
 42
-1.0
  3
SLDDIMSTYLE0
100
AcDbAlignedDimension
 13
47.8598235896
 23
122.0220006484
 33
0.0
 14
98.5447791818
 24
121.9048433609
 34
0.0
 50
0.0
100
AcDbRotatedDimension
  0
DIMENSION
  5
F8
330
1F
100
AcDbEntity
  8
0
  6
Continuous
 62
     7
370
    18
100
AcDbDimension
  2
_D_1
 10
37.8598235896
 20
177.4362455625
 30
0.0
 11
37.8598235896
 21
142.7936945768
 31
0.0
 70
   160
  1
<>
 71
     2
 42
-1.0
  3
SLDDIMSTYLE0
100
AcDbAlignedDimension
 13
57.2730120638
 23
112.2088121742
 33
0.0
 14
57.2730120638
 24
177.4362455625
 34
0.0
 50
90.0
100
AcDbRotatedDimension
  0
DIMENSION
  5
102
330
1F
100
AcDbEntity
  8
0
  6
Continuous
 62
     7
370
    18
100
AcDbDimension
  2
_D_2
 10
113.3878000731
 20
112.2088121742
 30
0.0
 11
113.3878000731
 21
116.6376654523
 31
0.0
 70
   160
  1
<>
 71
     2
 42
-1.0
  3
SLDDIMSTYLE1
100
AcDbAlignedDimension
 13
96.4735402837
 23
119.9512899703
 33
0.0
 14
89.2487479951
 24
112.2088121742
 34
0.0
 50
90.0
100
AcDbRotatedDimension
  0
DIMENSION
  5
10F
330
1F
100
AcDbEntity
  8
0
  6
Continuous
 62
     7
370
    18
100
AcDbDimension
  2
_D_3
 10
122.0411361835
 20
140.5512899703
 30
0.0
 11
122.0411361835
 21
129.0629685852
 31
0.0
 70
   160
  1
<>
 71
     2
 42
-1.0
  3
SLDDIMSTYLE1
100
AcDbAlignedDimension
 13
89.2487479951
 23
112.2088121742
 33
0.0
 14
98.5447791818
 24
140.5512899703
 34
0.0
 50
90.0
100
AcDbRotatedDimension
  0
DIMENSION
  5
119
330
1F
100
AcDbEntity
  8
0
  6
Continuous
 62
     7
370
    18
100
AcDbDimension
  2
_D_4
 10
96.4735402837
 20
183.33807829
 30
0.0
 11
98.431826838
 21
183.33807829
 31
0.0
 70
   160
  1
<>
 71
     2
 42
-1.0
  3
SLDDIMSTYLE1
100
AcDbAlignedDimension
 13
98.5447791818
 23
167.6230570883
 33
0.0
 14
96.4735402837
 24
169.6937677664
 34
0.0
100
AcDbRotatedDimension
  0
DIMENSION
  5
125
330
1F
100
AcDbEntity
  8
0
  6
Continuous
 62
     7
370
    18
100
AcDbDimension
  2
_D_5
 10
98.5447791818
 20
103.6985299588
 30
0.0
 11
95.8421066415
 21
103.6985299588
 31
0.0
 70
   160
  1
<>
 71
     2
 42
-1.0
  3
SLDDIMSTYLE1
100
AcDbAlignedDimension
 13
91.2023013857
 23
114.2800510723
 33
0.0
 14
98.5447791818
 24
121.9048433609
 34
0.0
 50
0.0
100
AcDbRotatedDimension
  0
MTEXT
  5
132
330
1F
100
AcDbEntity
  8
0
  6
Continuous
 62
     7
370
     0
100
AcDbMText
 10
45.1457456701
 20
130.2916992195
 30
0.0
 40
2.0
 41
0.0
 71
     2
 72
     1
  1
DOWN  90  R 2
  7
SLDTEXTSTYLE1
 11
-3.491481338843133E-15
 21
1.0
 31
0.0
 73
     1
 44
1.0
  0
MTEXT
  5
133
330
1F
100
AcDbEntity
  8
0
  6
Continuous
 62
     7
370
     0
100
AcDbMText
 10
72.7572842806
 20
116.6803247211
 30
0.0
 40
2.0
 41
0.0
 71
     2
 72
     1
  1
DOWN  90  R 2
  7
SLDTEXTSTYLE1
 73
     1
 44
1.0
  0
MTEXT
  5
134
330
1F
100
AcDbEntity
  8
0
  6
Continuous
 62
     7
370
     0
100
AcDbMText
 10
94.186516918
 20
129.865371891
 30
0.0
 40
2.0
 41
0.0
 71
     2
 72
     1
  1
DOWN  90  R 2
  7
SLDTEXTSTYLE1
 11
-3.491481338843133E-15
 21
1.0
 31
0.0
 73
     1
 44
1.0
  0
MTEXT
  5
135
330
1F
100
AcDbEntity
  8
0
  6
Continuous
 62
     7
370
     0
100
AcDbMText
 10
44.5501886602
 20
159.0003026732
 30
0.0
 40
2.0
 41
0.0
 71
     2
 72
     1
  1
DOWN  90  R 2
  7
SLDTEXTSTYLE1
 11
-3.491481338843133E-15
 21
1.0
 31
0.0
 73
     1
 44
1.0
  0
MTEXT
  5
136
330
1F
100
AcDbEntity
  8
0
  6
Continuous
 62
     7
370
     0
100
AcDbMText
 10
94.0732666349
 20
158.8017836699
 30
0.0
 40
2.0
 41
0.0
 71
     2
 72
     1
  1
DOWN  90  R 2
  7
SLDTEXTSTYLE1
 11
-3.491481338843133E-15
 21
1.0
 31
0.0
 73
     1
 44
1.0
  0
MTEXT
  5
137
330
1F
100
AcDbEntity
  8
0
  6
Continuous
 62
     7
370
     0
100
AcDbMText
 10
72.7279949587
 20
180.3549525181
 30
0.0
 40
2.0
 41
0.0
 71
     2
 72
     1
  1
DOWN  90  R 2
  7
SLDTEXTSTYLE1
 73
     1
 44
1.0
  0
MTEXT
  5
138
330
1F
100
AcDbEntity
  8
0
  6
Continuous
 62
     7
370
     0
100
AcDbMText
 10
89.1128129404
 20
129.8955608486
 30
0.0
 40
1.5
 41
0.0
 71
     2
 72
     1
  1
DOWN  90  R 2
  7
SLDTEXTSTYLE1
 11
-3.491481338843133E-15
 21
1.0
 31
0.0
 73
     1
 44
1.0
  0
MTEXT
  5
13A
330
1F
100
AcDbEntity
  8
0
  6
Continuous
 62
     7
370
     0
100
AcDbMText
 10
89.3177137973
 20
144.8856880596
 30
0.0
 40
1.0
 41
0.0
 71
     2
 72
     1
  1
UP  90  R 2
  7
SLDTEXTSTYLE2
 11
-3.491481338843133E-15
 21
1.0
 31
0.0
 73
     1
 44
1.0
  0
MTEXT
  5
13B
330
1F
100
AcDbEntity
  8
0
  6
Continuous
 62
     7
370
     0
100
AcDbMText
 10
89.1128129404
 20
159.0380386447
 30
0.0
 40
1.5
 41
0.0
 71
     2
 72
     1
  1
DOWN  90  R 2
  7
SLDTEXTSTYLE1
 11
-3.491481338843133E-15
 21
1.0
 31
0.0
 73
     1
 44
1.0
  0
MTEXT
  5
13C
330
1F
100
AcDbEntity
  8
0
  6
Continuous
 62
     7
370
     0
100
AcDbMText
 10
53.4415740424
 20
129.8955608486
 30
0.0
 40
1.5
 41
0.0
 71
     2
 72
     1
  1
DOWN  90  R 2
  7
SLDTEXTSTYLE1
 11
-3.491481338843133E-15
 21
1.0
 31
0.0
 73
     1
 44
1.0
  0
MTEXT
  5
13D
330
1F
100
AcDbEntity
  8
0
  6
Continuous
 62
     7
370
     0
100
AcDbMText
 10
54.0771089626
 20
144.8016032522
 30
0.0
 40
1.0
 41
0.0
 71
     2
 72
     1
  1
UP  90  R 2
  7
SLDTEXTSTYLE2
 11
-3.491481338843133E-15
 21
1.0
 31
0.0
 73
     1
 44
1.0
  0
MTEXT
  5
13E
330
1F
100
AcDbEntity
  8
0
  6
Continuous
 62
     7
370
     0
100
AcDbMText
 10
53.4415740424
 20
159.0380386447
 30
0.0
 40
1.5
 41
0.0
 71
     2
 72
     1
  1
DOWN  90  R 2
  7
SLDTEXTSTYLE1
 11
-3.491481338843133E-15
 21
1.0
 31
0.0
 73
     1
 44
1.0
  0
MTEXT
  5
13F
330
1F
100
AcDbEntity
  8
0
  6
Continuous
 62
     7
370
     0
100
AcDbMText
 10
72.7279949587
 20
122.3515636192
 30
0.0
 40
2.0
 41
0.0
 71
     2
 72
     1
  1
DOWN  90  R 2
  7
SLDTEXTSTYLE1
 73
     1
 44
1.0
  0
MTEXT
  5
140
330
1F
100
AcDbEntity
  8
0
  6
Continuous
 62
     7
370
     0
100
AcDbMText
 10
72.7279949587
 20
169.1570273981
 30
0.0
 40
2.0
 41
0.0
 71
     2
 72
     1
  1
DOWN  90  R 2
  7
SLDTEXTSTYLE1
 73
     1
 44
1.0
  0
MTEXT
  5
141
330
1F
100
AcDbEntity
  8
0
  6
Continuous
 62
     7
370
     0
100
AcDbMText
 10
72.7634121467
 20
143.4228025172
 30
0.0
 40
2.0
 41
0.0
 71
     2
 72
     1
  1
UP  90  R 2
  7
SLDTEXTSTYLE2
 73
     1
 44
1.0
  0
MTEXT
  5
142
330
1F
100
AcDbEntity
  8
0
  6
Continuous
 62
     7
370
     0
100
AcDbMText
 10
72.7634121467
 20
151.4940414152
 30
0.0
 40
2.0
 41
0.0
 71
     2
 72
     1
  1
UP  90  R 2
  7
SLDTEXTSTYLE2
 73
     1
 44
1.0
  0
LINE
  5
143
330
1F
100
AcDbEntity
  8
0
  6
Continuous
 62
     7
370
    25
100
AcDbLine
 10
156.2670340159
 20
147.0445948088
 30
0.0
 11
156.2670340159
 21
129.3869484144
 31
0.0
  0
LINE
  5
144
330
1F
100
AcDbEntity
  8
0
  6
Continuous
 62
     7
370
    25
100
AcDbLine
 10
165.563091845
 20
165.3357647339
 30
0.0
 11
149.1354141547
 21
149.3018476944
 31
0.0
  0
LINE
  5
145
330
1F
100
AcDbEntity
  8
0
  6
Continuous
 62
     7
370
    25
100
AcDbLine
 10
143.8851803124
 20
150.4097173344
 30
0.0
 11
143.8851803124
 21
133.030905311
 31
0.0
  0
LINE
  5
146
330
1F
100
AcDbEntity
  8
0
  6
Continuous
 62
     7
370
    25
100
AcDbLine
 10
161.4859614811
 20
127.7927798725
 30
0.0
 11
178.0324707308
 21
143.9426801569
 31
0.0
  0
LINE
  5
147
330
1F
100
AcDbEntity
  8
0
  6
Continuous
 62
     7
370
    25
100
AcDbLine
 10
149.1635458086
 20
131.2159157384
 30
0.0
 11
156.2670340159
 21
138.1491379963
 31
0.0
  0
LINE
  5
148
330
1F
100
AcDbEntity
  8
0
  6
Continuous
 62
     7
370
    25
100
AcDbLine
 10
178.0936859389
 20
144.4497971726
 30
0.0
 11
178.0936859389
 21
161.828609196
 31
0.0
  0
LINE
  5
149
330
1F
100
AcDbEntity
  8
0
  6
Continuous
 62
     7
370
    25
100
AcDbLine
 10
172.6689669099
 20
163.6087297207
 30
0.0
 11
165.9473891851
 21
165.4355105203
 31
0.0
  0
SPLINE
  5
14A
330
1F
100
AcDbEntity
  8
0
  6
Continuous
 62
     7
370
    25
100
AcDbSpline
210
0.0
220
0.0
230
1.0
 70
     8
 71
     3
 72
    10
 73
     6
 74
     0
 42
0.00000001
 43
0.00000001
 40
0.0
 40
0.0
 40
0.0
 40
0.0
 40
0.4234529356818984
 40
0.6109990492936275
 40
1.0
 40
1.0
 40
1.0
 40
1.0
 10
177.8015700493523
 20
144.2762610006351
 30
0.0
 10
177.8296534986217
 20
144.3004585364953
 30
0.0
 10
177.8701750285455
 20
144.3353730928957
 30
0.0
 10
177.9456407897734
 20
144.3793524442765
 30
0.0
 10
177.9883008616916
 20
144.3972572612912
 30
0.0
 10
178.0170839560137
 20
144.4093377856265
 30
0.0
  0
ARC
  5
14B
330
1F
100
AcDbEntity
  8
0
  6
Continuous
 62
     7
370
    25
100
AcDbCircle
 10
161.2626874209
 20
146.2010376885
 30
0.0
 40
0.6164495061919022
100
AcDbArc
 50
252.6960345908
 51
305.398914916
  0
LINE
  5
14C
330
1F
100
AcDbEntity
  8
0
  6
Continuous
 62
     7
370
    25
100
AcDbLine
 10
161.6197754973
 20
128.4443772055
 30
0.0
 11
161.6197754973
 21
145.6985457986
 31
0.0
  0
SPLINE
  5
14D
330
1F
100
AcDbEntity
  8
0
  6
Continuous
 62
     7
370
    25
100
AcDbSpline
210
0.0
220
0.0
230
1.0
 70
     8
 71
     3
 72
    20
 73
    16
 74
     0
 42
0.00000001
 43
0.00000001
 40
0.0
 40
0.0
 40
0.0
 40
0.0
 40
0.2499999999999988
 40
0.2499999999999988
 40
0.374999999999999
 40
0.374999999999999
 40
0.4999999999999992
 40
0.4999999999999992
 40
0.6249999999999994
 40
0.6249999999999994
 40
0.7499999999999996
 40
0.7499999999999996
 40
0.8749999999999998
 40
0.8749999999999998
 40
1.0
 40
1.0
 40
1.0
 40
1.0
 10
161.6197754972661
 20
128.4443772055166
 30
0.0
 10
161.5951292932309
 20
128.3864095281143
 30
0.0
 10
161.5620473493879
 20
128.3323944950863
 30
0.0
 10
161.5012407900579
 20
128.2556455220814
 30
0.0
 10
161.4794144717154
 20
128.2312342960043
 30
0.0
 10
161.4336204499286
 20
128.1850171517041
 30
0.0
 10
161.4095656987648
 20
128.1631019709567
 30
0.0
 10
161.3594192496722
 20
128.1213773091089
 30
0.0
 10
161.3334475398584
 20
128.1017000500738
 30
0.0
 10
161.2816011512524
 20
128.0654409597973
 30
0.0
 10
161.2555168606449
 20
128.0486805471417
 30
0.0
 10
161.2033823394584
 20
128.0175257419677
 30
0.0
 10
161.1772655668322
 20
128.0031145991447
 30
0.0
 10
161.1270164362267
 20
127.9771411002737
 30
0.0
 10
161.1026831714317
 20
127.965451405194
 30
0.0
 10
161.0793300930232
 20
127.9548421592939
 30
0.0
  0
LINE
  5
14E
330
1F
100
AcDbEntity
  8
0
  6
Continuous
 62
     7
370
    25
100
AcDbLine
 10
161.079330093
 20
127.9548421593
 30
0.0
 11
161.079330093
 21
145.6124885538
 31
0.0
  0
LINE
  5
14F
330
1F
100
AcDbEntity
  8
0
  6
Continuous
 62
     7
370
    25
100
AcDbLine
 10
161.1726691708
 20
145.7035903551
 30
0.0
 11
161.079330093
 21
145.6124885538
 31
0.0
  0
ARC
  5
150
330
1F
100
AcDbEntity
  8
0
  6
Continuous
 62
     7
370
    25
100
AcDbCircle
 10
161.2643478347
 20
145.9978649225
 30
0.0
 40
0.3082247530958865
100
AcDbArc
 50
252.6960345908
 51
305.398914916
  0
LINE
  5
151
330
1F
100
AcDbEntity
  8
0
  6
Continuous
 62
     7
370
    25
100
AcDbLine
 10
161.4428918729
 20
145.7466189775
 30
0.0
 11
161.6197754973
 21
145.6985457986
 31
0.0
  0
LINE
  5
152
330
1F
100
AcDbEntity
  8
0
  6
Continuous
 62
     7
370
    25
100
AcDbLine
 10
156.4803558603
 20
129.2047448117
 30
0.0
 11
161.079330093
 21
127.9548421593
 31
0.0
  0
LINE
  5
153
330
1F
100
AcDbEntity
  8
0
  6
Continuous
 62
     7
370
    25
100
AcDbLine
 10
156.4803558603
 20
129.2047448117
 30
0.0
 11
156.4803558603
 21
146.8623912061
 31
0.0
  0
LINE
  5
154
330
1F
100
AcDbEntity
  8
0
  6
Continuous
 62
     7
370
    25
100
AcDbLine
 10
161.079330093
 20
145.6124885538
 30
0.0
 11
156.4803558603
 21
146.8623912061
 31
0.0
  0
LINE
  5
155
330
1F
100
AcDbEntity
  8
0
  6
Continuous
 62
     7
370
    25
100
AcDbLine
 10
156.5736949381
 20
146.9534930075
 30
0.0
 11
156.4803558603
 21
146.8623912061
 31
0.0
  0
LINE
  5
156
330
1F
100
AcDbEntity
  8
0
  6
Continuous
 62
     7
370
    25
100
AcDbLine
 10
161.1726691708
 20
145.7035903551
 30
0.0
 11
156.5736949381
 21
146.9534930075
 31
0.0
  0
LINE
  5
157
330
1F
100
AcDbEntity
  8
0
  6
Continuous
 62
     7
370
    25
100
AcDbLine
 10
162.3664881196
 20
146.4273602095
 30
0.0
 11
161.6197754973
 21
145.6985457986
 31
0.0
  0
LINE
  5
158
330
1F
100
AcDbEntity
  8
0
  6
Continuous
 62
     7
370
    25
100
AcDbLine
 10
162.3664881196
 20
130.5446592975
 30
0.0
 11
162.3664881196
 21
146.4273602095
 31
0.0
  0
LINE
  5
159
330
1F
100
AcDbEntity
  8
0
  6
Continuous
 62
     7
370
    25
100
AcDbLine
 10
162.3664881196
 20
130.5446592975
 30
0.0
 11
161.6197754973
 21
128.4443772055
 31
0.0
  0
LINE
  5
15A
330
1F
100
AcDbEntity
  8
0
  6
Continuous
 62
     7
370
    25
100
AcDbLine
 10
162.1896044952
 20
146.4754333884
 30
0.0
 11
161.4428918729
 21
145.7466189775
 31
0.0
  0
LINE
  5
15B
330
1F
100
AcDbEntity
  8
0
  6
Continuous
 62
     7
370
    25
100
AcDbLine
 10
162.3664881196
 20
146.4273602095
 30
0.0
 11
162.1896044952
 21
146.4754333884
 31
0.0
  0
LWPOLYLINE
  5
15C
330
1F
100
AcDbEntity
  8
0
  6
Continuous
 62
     7
370
    25
100
AcDbPolyline
 90
        9
 70
   128
 43
0.0
 10
156.3132667672
 20
147.1407411667
 10
156.2836452042
 20
147.1033475819
 10
156.2687570582
 20
147.0636961609
 10
156.2691744724
 20
147.0233106857
 10
156.2848814057
 20
146.9837431474
 10
156.3152742495
 20
146.9465141044
 10
156.3591850238
 20
146.9130542478
 10
156.4149262623
 20
146.8846494212
 10
156.4803558603
 20
146.8623912061
  0
LWPOLYLINE
  5
15D
330
1F
100
AcDbEntity
  8
0
  6
Continuous
 62
     7
370
    25
100
AcDbPolyline
 90
        7
 70
   128
 43
0.0
 10
156.4803558603
 20
129.2047448117
 10
156.4149262623
 20
129.2270030267
 10
156.3591850238
 20
129.2554078533
 10
156.3152742495
 20
129.2888677099
 10
156.2848814057
 20
129.326096753
 10
156.2691744724
 20
129.3656642913
 10
156.2670340159
 20
129.3869484144
  0
LINE
  5
15E
330
1F
100
AcDbEntity
  8
0
  6
Continuous
 62
     7
370
    25
100
AcDbLine
 10
156.4901503915
 20
147.0926679878
 30
0.0
 11
156.3132667672
 21
147.1407411667
 31
0.0
  0
LWPOLYLINE
  5
15F
330
1F
100
AcDbEntity
  8
0
  6
Continuous
 62
     7
370
    25
100
AcDbPolyline
 90
        9
 70
   128
 43
0.0
 10
156.4901503915
 20
147.0926679878
 10
156.47533961
 20
147.0739711954
 10
156.4678955371
 20
147.0541454849
 10
156.4681042441
 20
147.0339527473
 10
156.4759577108
 20
147.0141689781
 10
156.4911541327
 20
146.9955544566
 10
156.5131095198
 20
146.9788245283
 10
156.5409801391
 20
146.964622115
 10
156.5736949381
 20
146.9534930075
  0
ARC
  5
160
330
1F
100
AcDbEntity
  8
0
  6
Continuous
 62
     7
370
    25
100
AcDbCircle
 10
156.7676871666
 20
147.0115138737
 30
0.0
 40
0.8179968743344155
100
AcDbArc
 50
140.5129436103
 51
180.3434369839
  0
LINE
  5
161
330
1F
100
AcDbEntity
  8
0
  6
Continuous
 62
     7
370
    25
100
AcDbLine
 10
155.9497049873
 20
147.0066107429
 30
0.0
 11
149.2281272625
 21
148.8333915425
 31
0.0
  0
ARC
  5
162
330
1F
100
AcDbEntity
  8
0
  6
Continuous
 62
     7
370
    25
100
AcDbCircle
 10
150.0461094419
 20
148.8382946733
 30
0.0
 40
0.8179968743346206
100
AcDbArc
 50
140.5129436103
 51
180.3434369839
  0
LINE
  5
163
330
1F
100
AcDbEntity
  8
0
  6
Continuous
 62
     7
370
    25
100
AcDbLine
 10
149.4148054181
 20
149.3584620655
 30
0.0
 11
156.1363831429
 21
147.5316812659
 31
0.0
  0
LINE
  5
164
330
1F
100
AcDbEntity
  8
0
  6
Continuous
 62
     7
370
    25
100
AcDbLine
 10
156.1363831429
 20
147.3602478058
 30
0.0
 11
156.1363831429
 21
147.5316812659
 31
0.0
  0
ARC
  5
165
330
1F
100
AcDbEntity
  8
0
  6
Continuous
 62
     7
370
    25
100
AcDbCircle
 10
156.4520351548
 20
147.1001641096
 30
0.0
 40
0.4089984371673432
100
AcDbArc
 50
140.5129436103
 51
180.3434369839
  0
LINE
  5
166
330
1F
100
AcDbEntity
  8
0
  6
Continuous
 62
     7
370
    25
100
AcDbLine
 10
156.0430440651
 20
147.0977125443
 30
0.0
 11
155.9497049873
 21
147.0066107429
 31
0.0
  0
LINE
  5
167
330
1F
100
AcDbEntity
  8
0
  6
Continuous
 62
     7
370
    25
100
AcDbLine
 10
156.4901503915
 20
146.9965216299
 30
0.0
 11
156.4901503915
 21
147.0926679878
 31
0.0
  0
ARC
  5
168
330
1F
100
AcDbEntity
  8
0
  6
Continuous
 62
     7
370
    25
100
AcDbCircle
 10
156.0052015136
 20
147.0639283833
 30
0.0
 40
0.4857997314466689
100
AcDbArc
 50
3.391562315
 51
74.3338098233
  0
ARC
  5
169
330
1F
100
AcDbEntity
  8
0
  6
Continuous
 62
     7
370
    25
100
AcDbCircle
 10
156.0707923282
 20
147.1263713645
 30
0.0
 40
0.2428998657232644
100
AcDbArc
 50
3.391562315
 51
74.3338098233
  0
LINE
  5
16A
330
1F
100
AcDbEntity
  8
0
  6
Continuous
 62
     7
370
    25
100
AcDbLine
 10
156.1363831429
 20
147.5316812659
 30
0.0
 11
172.5640608332
 21
163.5655983054
 31
0.0
  0
ARC
  5
16B
330
1F
100
AcDbEntity
  8
0
  6
Continuous
 62
     7
370
    25
100
AcDbCircle
 10
172.4328792039
 20
163.0978454228
 30
0.0
 40
0.4857997314466689
100
AcDbArc
 50
3.391562315
 51
74.3338098233
  0
LINE
  5
16C
330
1F
100
AcDbEntity
  8
0
  6
Continuous
 62
     7
370
    25
100
AcDbLine
 10
156.4901503915
 20
147.0926679878
 30
0.0
 11
172.9178280819
 21
163.1265850273
 31
0.0
  0
LINE
  5
16D
330
1F
100
AcDbEntity
  8
0
  6
Continuous
 62
     7
370
    25
100
AcDbLine
 10
155.9497049873
 20
144.1646530801
 30
0.0
 11
156.0430440651
 21
144.2557548815
 31
0.0
  0
LINE
  5
16E
330
1F
100
AcDbEntity
  8
0
  6
Continuous
 62
     7
370
    25
100
AcDbLine
 10
155.9497049873
 20
147.0066107429
 30
0.0
 11
155.9497049873
 21
144.1646530801
 31
0.0
  0
LINE
  5
16F
330
1F
100
AcDbEntity
  8
0
  6
Continuous
 62
     7
370
    25
100
AcDbLine
 10
156.0430440651
 20
147.0977125443
 30
0.0
 11
156.0430440651
 21
144.2557548815
 31
0.0
  0
LINE
  5
170
330
1F
100
AcDbEntity
  8
0
  6
Continuous
 62
     7
370
    25
100
AcDbLine
 10
155.9497049873
 20
144.1646530801
 30
0.0
 11
149.2281272625
 21
145.9914338797
 31
0.0
  0
LINE
  5
171
330
1F
100
AcDbEntity
  8
0
  6
Continuous
 62
     7
370
    25
100
AcDbLine
 10
149.2281272625
 20
145.9914338797
 30
0.0
 11
149.2281272625
 21
148.8333915425
 31
0.0
  0
LINE
  5
172
330
1F
100
AcDbEntity
  8
0
  6
Continuous
 62
     7
370
    25
100
AcDbLine
 10
165.8424831085
 20
165.392379105
 30
0.0
 11
149.4148054181
 21
149.3584620655
 31
0.0
  0
LINE
  5
173
330
1F
100
AcDbEntity
  8
0
  6
Continuous
 62
     7
370
    25
100
AcDbLine
 10
172.5640608332
 20
163.5655983054
 30
0.0
 11
165.8424831085
 21
165.392379105
 31
0.0
  0
LINE
  5
174
330
1F
100
AcDbEntity
  8
0
  6
Continuous
 62
     7
370
    25
100
AcDbLine
 10
172.9178280819
 20
145.4689386328
 30
0.0
 11
162.3664881196
 21
135.1705073633
 31
0.0
  0
LINE
  5
175
330
1F
100
AcDbEntity
  8
0
  6
Continuous
 62
     7
370
    25
100
AcDbLine
 10
172.9178280819
 20
163.1265850273
 30
0.0
 11
172.9178280819
 21
145.4689386328
 31
0.0
  0
LINE
  5
176
330
1F
100
AcDbEntity
  8
0
  6
Continuous
 62
     7
370
    25
100
AcDbLine
 10
149.0610381694
 20
149.1117415031
 30
0.0
 11
149.2379217938
 21
149.0636683242
 31
0.0
  0
ARC
  5
177
330
1F
100
AcDbEntity
  8
0
  6
Continuous
 62
     7
370
    25
100
AcDbCircle
 10
148.8808337174
 20
149.5661602141
 30
0.0
 40
0.61644950619157
100
AcDbArc
 50
252.6960345908
 51
305.398914916
  0
LINE
  5
178
330
1F
100
AcDbEntity
  8
0
  6
Continuous
 62
     7
370
    25
100
AcDbLine
 10
148.7908154673
 20
149.0687128807
 30
0.0
 11
148.6974763895
 21
148.9776110793
 31
0.0
  0
ARC
  5
179
330
1F
100
AcDbEntity
  8
0
  6
Continuous
 62
     7
370
    25
100
AcDbCircle
 10
148.8824941313
 20
149.3629874481
 30
0.0
 40
0.3082247530957309
100
AcDbArc
 50
252.6960345908
 51
305.3989149161
  0
ARC
  5
17A
330
1F
100
AcDbEntity
  8
0
  6
Continuous
 62
     7
370
    25
100
AcDbCircle
 10
148.8808337174
 20
131.9085138196
 30
0.0
 40
0.6164495061914784
100
AcDbArc
 50
252.6960345908
 51
305.398914916
  0
LINE
  5
17B
330
1F
100
AcDbEntity
  8
0
  6
Continuous
 62
     7
370
    25
100
AcDbLine
 10
148.6974763895
 20
148.9776110793
 30
0.0
 11
148.6974763895
 21
131.3199646849
 31
0.0
  0
LINE
  5
17C
330
1F
100
AcDbEntity
  8
0
  6
Continuous
 62
     7
370
    25
100
AcDbLine
 10
149.2379217938
 20
149.0636683242
 30
0.0
 11
149.2379217938
 21
148.9525519285
 31
0.0
  0
LINE
  5
17D
330
1F
100
AcDbEntity
  8
0
  6
Continuous
 62
     7
370
    25
100
AcDbLine
 10
149.2379217938
 20
145.988771936
 30
0.0
 11
149.2379217938
 21
131.4060219297
 31
0.0
  0
ARC
  5
17E
330
1F
100
AcDbEntity
  8
0
  6
Continuous
 62
     7
370
    25
100
AcDbCircle
 10
149.3621977331
 20
149.069429276
 30
0.0
 40
0.1244093953636832
100
AcDbArc
 50
119.0472970007
 51
182.6541106799
  0
ARC
  5
17F
330
1F
100
AcDbEntity
  8
0
  6
Continuous
 62
     7
370
    25
100
AcDbCircle
 10
149.3210354766
 20
149.1159268821
 30
0.0
 40
0.260030992617823
100
AcDbArc
 50
68.862298024
 51
180.9222550965
  0
ARC
  5
180
330
1F
100
AcDbEntity
  8
0
  6
Continuous
 62
     7
370
    25
100
AcDbCircle
 10
165.7511669026
 20
165.1253200149
 30
0.0
 40
0.2822396270731844
100
AcDbArc
 50
71.12277008
 51
131.7872519911
  0
LINE
  5
181
330
1F
100
AcDbEntity
  8
0
  6
Continuous
 62
     7
370
    25
100
AcDbLine
 10
149.2379217938
 20
149.0636683242
 30
0.0
 11
149.2719509662
 21
149.0968818397
 31
0.0
  0
LINE
  5
182
330
1F
100
AcDbEntity
  8
0
  6
Continuous
 62
     7
370
    25
100
AcDbLine
 10
148.6974763895
 20
148.9776110793
 30
0.0
 11
144.0985021568
 21
150.2275137317
 31
0.0
  0
LINE
  5
183
330
1F
100
AcDbEntity
  8
0
  6
Continuous
 62
     7
370
    25
100
AcDbLine
 10
144.0985021568
 20
132.5698673372
 30
0.0
 11
148.6974763895
 21
131.3199646849
 31
0.0
  0
LINE
  5
184
330
1F
100
AcDbEntity
  8
0
  6
Continuous
 62
     7
370
    25
100
AcDbLine
 10
144.0985021568
 20
150.2275137317
 30
0.0
 11
144.0985021568
 21
132.5698673372
 31
0.0
  0
LINE
  5
185
330
1F
100
AcDbEntity
  8
0
  6
Continuous
 62
     7
370
    25
100
AcDbLine
 10
148.7908154673
 20
149.0687128807
 30
0.0
 11
144.1918412346
 21
150.318615533
 31
0.0
  0
LINE
  5
186
330
1F
100
AcDbEntity
  8
0
  6
Continuous
 62
     7
370
    25
100
AcDbLine
 10
144.1918412346
 20
150.318615533
 30
0.0
 11
144.0985021568
 21
150.2275137317
 31
0.0
  0
LINE
  5
187
330
1F
100
AcDbEntity
  8
0
  6
Continuous
 62
     7
370
    25
100
AcDbLine
 10
149.2379217938
 20
131.4060219297
 30
0.0
 11
156.2670340159
 21
138.2666509459
 31
0.0
  0
SPLINE
  5
188
330
1F
100
AcDbEntity
  8
0
  6
Continuous
 62
     7
370
    25
100
AcDbSpline
210
0.0
220
0.0
230
1.0
 70
     8
 71
     3
 72
    10
 73
     6
 74
     0
 42
0.00000001
 43
0.00000001
 40
0.0
 40
0.0
 40
0.0
 40
0.0
 40
0.3785999668351464
 40
0.7675458971943242
 40
1.0
 40
1.0
 40
1.0
 40
1.0
 10
144.0985021568167
 20
132.5698673372251
 30
0.0
 10
144.053709002384
 20
132.6212214193387
 30
0.0
 10
143.9628986354559
 20
132.7253329314446
 30
0.0
 10
143.8906697821991
 20
132.8880796814569
 30
0.0
 10
143.8928911662097
 20
132.9921533986721
 30
0.0
 10
143.893722144323
 20
133.0310854251763
 30
0.0
  0
LWPOLYLINE
  5
189
330
1F
100
AcDbEntity
  8
0
  6
Continuous
 62
     7
370
    25
100
AcDbPolyline
 90
        9
 70
   128
 43
0.0
 10
143.9314130637
 20
150.5058636923
 10
143.9017915007
 20
150.4684701075
 10
143.8869033547
 20
150.4288186865
 10
143.8873207689
 20
150.3884332113
 10
143.9030277022
 20
150.348865673
 10
143.933420546
 20
150.3116366299
 10
143.9773313203
 20
150.2781767733
 10
144.0330725588
 20
150.2497719467
 10
144.0985021568
 20
150.2275137317
  0
LINE
  5
18A
330
1F
100
AcDbEntity
  8
0
  6
Continuous
 62
     7
370
    25
100
AcDbLine
 10
144.1082966881
 20
150.4577905133
 30
0.0
 11
143.9314130637
 21
150.5058636923
 31
0.0
  0
LWPOLYLINE
  5
18B
330
1F
100
AcDbEntity
  8
0
  6
Continuous
 62
     7
370
    25
100
AcDbPolyline
 90
        9
 70
   128
 43
0.0
 10
144.1082966881
 20
150.4577905133
 10
144.0934859066
 20
150.4390937209
 10
144.0860418336
 20
150.4192680105
 10
144.0862505406
 20
150.3990752729
 10
144.0941040073
 20
150.3792915037
 10
144.1093004292
 20
150.3606769822
 10
144.1312558163
 20
150.3439470539
 10
144.1591264356
 20
150.3297446406
 10
144.1918412346
 20
150.318615533
  0
LINE
  5
18C
330
1F
100
AcDbEntity
  8
0
  6
Continuous
 62
     7
370
    25
100
AcDbLine
 10
144.1082966881
 20
150.3616441555
 30
0.0
 11
144.1082966881
 21
150.4577905133
 31
0.0
  0
LINE
  5
18D
330
1F
100
AcDbEntity
  8
0
  6
Continuous
 62
     7
370
    25
100
AcDbLine
 10
144.1082966881
 20
150.4577905133
 30
0.0
 11
144.8550093103
 21
151.1866049242
 31
0.0
  0
LINE
  5
18E
330
1F
100
AcDbEntity
  8
0
  6
Continuous
 62
     7
370
    25
100
AcDbLine
 10
144.8550093103
 20
151.1866049242
 30
0.0
 11
144.8550093103
 21
150.13838066
 31
0.0
  0
LINE
  5
18F
330
1F
100
AcDbEntity
  8
0
  6
Continuous
 62
     7
370
    25
100
AcDbLine
 10
143.9314130637
 20
150.5058636923
 30
0.0
 11
144.678125686
 21
151.2346781032
 31
0.0
  0
LINE
  5
190
330
1F
100
AcDbEntity
  8
0
  6
Continuous
 62
     7
370
    25
100
AcDbLine
 10
144.678125686
 20
151.2346781032
 30
0.0
 11
144.8550093103
 21
151.1866049242
 31
0.0
  0
LINE
  5
191
330
1F
100
AcDbEntity
  8
0
  6
Continuous
 62
     7
370
    25
100
AcDbLine
 10
177.2677402179
 20
144.6852603631
 30
0.0
 11
162.399488467
 21
130.1733908469
 31
0.0
  0
LINE
  5
192
330
1F
100
AcDbEntity
  8
0
  6
Continuous
 62
     7
370
    25
100
AcDbLine
 10
177.2677402179
 20
144.6852603631
 30
0.0
 11
178.0144528402
 21
144.0426070929
 31
0.0
  0
LINE
  5
193
330
1F
100
AcDbEntity
  8
0
  6
Continuous
 62
     7
370
    25
100
AcDbLine
 10
178.0144528402
 20
144.0426070929
 30
0.0
 11
161.6527758447
 21
128.0731087549
 31
0.0
  0
LINE
  5
194
330
1F
100
AcDbEntity
  8
0
  6
Continuous
 62
     7
370
    25
100
AcDbLine
 10
161.6527758447
 20
128.0731087549
 30
0.0
 11
162.399488467
 21
130.1733908469
 31
0.0
  0
LINE
  5
195
330
1F
100
AcDbEntity
  8
0
  6
Continuous
 62
     7
370
    25
100
AcDbLine
 10
162.399488467
 20
130.1733908469
 30
0.0
 11
162.2490293322
 21
130.2142824158
 31
0.0
  0
LINE
  5
196
330
1F
100
AcDbEntity
  8
0
  6
Continuous
 62
     7
370
    25
100
AcDbLine
 10
161.6527758447
 20
128.0731087549
 30
0.0
 11
161.4758922204
 21
128.1211819338
 31
0.0
  0
LINE
  5
197
330
1F
100
AcDbEntity
  8
0
  6
Continuous
 62
     7
370
    25
100
AcDbLine
 10
161.4758922204
 20
128.1211819338
 30
0.0
 11
161.5504228201
 21
128.330814501
 31
0.0
  0
SPLINE
  5
198
330
1F
100
AcDbEntity
  8
0
  6
Continuous
 62
     7
370
    25
100
AcDbSpline
210
0.0
220
0.0
230
1.0
 70
     8
 71
     3
 72
    20
 73
    16
 74
     0
 42
0.00000001
 43
0.00000001
 40
0.0
 40
0.0
 40
0.0
 40
0.0
 40
0.2500000000000076
 40
0.2500000000000076
 40
0.3750000000000065
 40
0.3750000000000065
 40
0.5000000000000054
 40
0.5000000000000054
 40
0.6250000000000043
 40
0.6250000000000043
 40
0.7500000000000032
 40
0.7500000000000032
 40
0.8750000000000022
 40
0.8750000000000022
 40
1.0
 40
1.0
 40
1.0
 40
1.0
 10
161.0793300930232
 20
127.611975239013
 30
0.0
 10
161.1445001862203
 20
127.6173028704284
 30
0.0
 10
161.2079996386345
 20
127.6312786903091
 30
0.0
 10
161.3002147258695
 20
127.6665980936312
 30
0.0
 10
161.3299034296975
 20
127.6806172028083
 30
0.0
 10
161.3864148601457
 20
127.7127720860313
 30
0.0
 10
161.4133695609597
 20
127.730957578809
 30
0.0
 10
161.4645887567687
 20
127.7717371314425
 30
0.0
 10
161.4886863994569
 20
127.7942635056446
 30
0.0
 10
161.532542705201
 20
127.8422251624803
 30
0.0
 10
161.5525215363102
 20
127.8678264079892
 30
0.0
 10
161.5886019082776
 20
127.9222979817089
 30
0.0
 10
161.6047080834677
 20
127.9512766288961
 30
0.0
 10
161.6321028445984
 20
128.0107613646917
 30
0.0
 10
161.643543878682
 20
128.0414645531283
 30
0.0
 10
161.6527758446923
 20
128.0731087549023
 30
0.0
  0
LINE
  5
199
330
1F
100
AcDbEntity
  8
0
  6
Continuous
 62
     7
370
    25
100
AcDbLine
 10
161.079330093
 20
127.7834086992
 30
0.0
 11
161.079330093
 21
127.611975239
 31
0.0
  0
SPLINE
  5
19A
330
1F
100
AcDbEntity
  8
0
  6
Continuous
 62
     7
370
    25
100
AcDbSpline
210
0.0
220
0.0
230
1.0
 70
     8
 71
     3
 72
    14
 73
    10
 74
     0
 42
0.00000001
 43
0.00000001
 40
0.0
 40
0.0
 40
0.0
 40
0.0
 40
0.25
 40
0.25
 40
0.5
 40
0.5
 40
0.75
 40
0.75
 40
1.0
 40
1.0
 40
1.0
 40
1.0
 10
161.0793300930232
 20
127.7834086991534
 30
0.0
 10
161.1211075342699
 20
127.7950721495805
 30
0.0
 10
161.1621708562108
 20
127.8110018170475
 30
0.0
 10
161.2413644242739
 20
127.8521482989161
 30
0.0
 10
161.2796674276164
 20
127.8776444763809
 30
0.0
 10
161.3486534148398
 20
127.9358807807797
 30
0.0
 10
161.3798092826121
 20
127.9687948095353
 30
0.0
 10
161.4346168347561
 20
128.0416862728986
 30
0.0
 10
161.4574457620588
 20
128.080565524807
 30
0.0
 10
161.4758922203568
 20
128.1211819338391
 30
0.0
  0
SPLINE
  5
19B
330
1F
100
AcDbEntity
  8
0
  6
Continuous
 62
     7
370
    25
100
AcDbSpline
210
0.0
220
0.0
230
1.0
 70
     8
 71
     3
 72
     9
 73
     5
 74
     0
 42
0.00000001
 43
0.00000001
 40
0.0
 40
0.0
 40
0.0
 40
0.0
 40
0.6220493126540867
 40
1.0
 40
1.0
 40
1.0
 40
1.0
 10
178.0144528401783
 20
144.0426070928921
 30
0.0
 10
178.0294566142148
 20
144.014363886031
 30
0.0
 10
178.0535765251791
 20
143.9689604006697
 30
0.0
 10
178.0337800450595
 20
143.9542189015432
 30
0.0
 10
178.0262979517913
 20
143.9486473418159
 30
0.0
  0
LINE
  5
19C
330
1F
100
AcDbEntity
  8
0
  6
Continuous
 62
     7
370
    25
100
AcDbLine
 10
177.8866790854
 20
144.1525747282
 30
0.0
 11
177.8803640945
 21
144.1817329441
 31
0.0
  0
LINE
  5
19D
330
1F
100
AcDbEntity
  8
0
  6
Continuous
 62
     7
370
    25
100
AcDbLine
 10
177.8803640945
 20
144.1817329441
 30
0.0
 11
177.8674476704
 21
144.1691261182
 31
0.0
  0
LINE
  5
19E
330
1F
100
AcDbEntity
  8
0
  6
Continuous
 62
     7
370
    25
100
AcDbLine
 10
161.5027252664
 20
128.1966553681
 30
0.0
 11
161.079330093
 21
127.7834086992
 31
0.0
  0
LINE
  5
19F
330
1F
100
AcDbEntity
  8
0
  6
Continuous
 62
     7
370
    25
100
AcDbLine
 10
156.4803558603
 20
129.0333113515
 30
0.0
 11
156.6177434162
 21
129.1674058178
 31
0.0
  0
LINE
  5
1A0
330
1F
100
AcDbEntity
  8
0
  6
Continuous
 62
     7
370
    25
100
AcDbLine
 10
162.3664881196
 20
134.7783568843
 30
0.0
 11
173.0947117062
 21
145.2494319937
 31
0.0
  0
LINE
  5
1A1
330
1F
100
AcDbEntity
  8
0
  6
Continuous
 62
     7
370
    25
100
AcDbLine
 10
173.0947117062
 20
145.2494319937
 30
0.0
 11
173.2813898618
 21
145.4316355965
 31
0.0
  0
LINE
  5
1A2
330
1F
100
AcDbEntity
  8
0
  6
Continuous
 62
     7
370
    25
100
AcDbLine
 10
173.2813898618
 20
145.4316355965
 30
0.0
 11
174.9971610178
 21
144.9653257608
 31
0.0
  0
LINE
  5
1A3
330
1F
100
AcDbEntity
  8
0
  6
Continuous
 62
     7
370
    25
100
AcDbLine
 10
174.7591463695
 20
144.7330161673
 30
0.0
 11
174.9971610178
 21
144.9653257608
 31
0.0
  0
LINE
  5
1A4
330
1F
100
AcDbEntity
  8
0
  6
Continuous
 62
     7
370
    25
100
AcDbLine
 10
174.9537183563
 20
144.6801356705
 30
0.0
 11
174.7591463695
 21
144.7330161673
 31
0.0
  0
LINE
  5
1A5
330
1F
100
AcDbEntity
  8
0
  6
Continuous
 62
     7
370
    25
100
AcDbLine
 10
174.9537183563
 20
144.6801356705
 30
0.0
 11
175.1917330046
 21
144.9124452639
 31
0.0
  0
LINE
  5
1A6
330
1F
100
AcDbEntity
  8
0
  6
Continuous
 62
     7
370
    25
100
AcDbLine
 10
175.1917330046
 20
144.9124452639
 30
0.0
 11
176.8207597162
 21
144.4697107096
 31
0.0
  0
LINE
  5
1A7
330
1F
100
AcDbEntity
  8
0
  6
Continuous
 62
     7
370
    25
100
AcDbLine
 10
177.8400776641
 20
144.1926819326
 30
0.0
 11
177.8803640945
 21
144.1817329441
 31
0.0
  0
LINE
  5
1A8
330
1F
100
AcDbEntity
  8
0
  6
Continuous
 62
     7
370
    25
100
AcDbLine
 10
161.079330093
 20
127.7834086992
 30
0.0
 11
158.3906990031
 21
128.514121019
 31
0.0
  0
LINE
  5
1A9
330
1F
100
AcDbEntity
  8
0
  6
Continuous
 62
     7
370
    25
100
AcDbLine
 10
158.528086559
 20
128.6482154853
 30
0.0
 11
158.3906990031
 21
128.514121019
 31
0.0
  0
LINE
  5
1AA
330
1F
100
AcDbEntity
  8
0
  6
Continuous
 62
     7
370
    25
100
AcDbLine
 10
158.3335145722
 20
128.7010959821
 30
0.0
 11
158.1961270164
 21
128.5670015158
 31
0.0
  0
LINE
  5
1AB
330
1F
100
AcDbEntity
  8
0
  6
Continuous
 62
     7
370
    25
100
AcDbLine
 10
158.1961270164
 20
128.5670015158
 30
0.0
 11
156.4803558603
 21
129.0333113515
 31
0.0
  0
LINE
  5
1AC
330
1F
100
AcDbEntity
  8
0
  6
Continuous
 62
     7
370
    25
100
AcDbLine
 10
164.958543202
 20
135.1673270244
 30
0.0
 11
165.1531151887
 21
135.1144465276
 31
0.0
  0
LINE
  5
1AD
330
1F
100
AcDbEntity
  8
0
  6
Continuous
 62
     7
370
    25
100
AcDbLine
 10
165.1531151887
 20
135.1144465276
 30
0.0
 11
165.395796791
 21
135.3513112111
 31
0.0
  0
LINE
  5
1AE
330
1F
100
AcDbEntity
  8
0
  6
Continuous
 62
     7
370
    25
100
AcDbLine
 10
165.395796791
 20
135.3513112111
 30
0.0
 11
165.2012248042
 21
135.404191708
 31
0.0
  0
LINE
  5
1AF
330
1F
100
AcDbEntity
  8
0
  6
Continuous
 62
     7
370
    25
100
AcDbLine
 10
165.2012248042
 20
135.404191708
 30
0.0
 11
164.958543202
 21
135.1673270244
 31
0.0
  0
LINE
  5
1B0
330
1F
100
AcDbEntity
  8
0
  6
Continuous
 62
     7
370
    25
100
AcDbLine
 10
171.5701767865
 20
141.3776953711
 30
0.0
 11
171.3756047997
 21
141.430575868
 31
0.0
  0
LINE
  5
1B1
330
1F
100
AcDbEntity
  8
0
  6
Continuous
 62
     7
370
    25
100
AcDbLine
 10
171.8128583888
 20
141.6145600547
 30
0.0
 11
171.5701767865
 21
141.3776953711
 31
0.0
  0
LINE
  5
1B2
330
1F
100
AcDbEntity
  8
0
  6
Continuous
 62
     7
370
    25
100
AcDbLine
 10
171.618286402
 20
141.6674405515
 30
0.0
 11
171.8128583888
 21
141.6145600547
 31
0.0
  0
LINE
  5
1B3
330
1F
100
AcDbEntity
  8
0
  6
Continuous
 62
     7
370
    25
100
AcDbLine
 10
171.3756047997
 20
141.430575868
 30
0.0
 11
171.618286402
 21
141.6674405515
 31
0.0
  0
LINE
  5
1B4
330
1F
100
AcDbEntity
  8
0
  6
Continuous
 62
     7
370
    25
100
AcDbLine
 10
168.1866352168
 20
138.0752550718
 30
0.0
 11
167.99206323
 21
138.1281355686
 31
0.0
  0
LINE
  5
1B5
330
1F
100
AcDbEntity
  8
0
  6
Continuous
 62
     7
370
    25
100
AcDbLine
 10
168.429316819
 20
138.3121197554
 30
0.0
 11
168.1866352168
 21
138.0752550718
 31
0.0
  0
LINE
  5
1B6
330
1F
100
AcDbEntity
  8
0
  6
Continuous
 62
     7
370
    25
100
AcDbLine
 10
168.2347448322
 20
138.3650002522
 30
0.0
 11
168.429316819
 21
138.3121197554
 31
0.0
  0
LINE
  5
1B7
330
1F
100
AcDbEntity
  8
0
  6
Continuous
 62
     7
370
    25
100
AcDbLine
 10
167.99206323
 20
138.1281355686
 30
0.0
 11
168.2347448322
 21
138.3650002522
 31
0.0
  0
LINE
  5
1B8
330
1F
100
AcDbEntity
  8
0
  6
Continuous
 62
     7
370
    25
100
AcDbLine
 10
161.079330093
 20
127.611975239
 30
0.0
 11
158.3906990031
 21
128.3426875589
 31
0.0
  0
LINE
  5
1B9
330
1F
100
AcDbEntity
  8
0
  6
Continuous
 62
     7
370
    25
100
AcDbLine
 10
158.3906990031
 20
128.3426875589
 30
0.0
 11
158.3906990031
 21
128.514121019
 31
0.0
  0
LINE
  5
1BA
330
1F
100
AcDbEntity
  8
0
  6
Continuous
 62
     7
370
    25
100
AcDbLine
 10
177.0908565936
 20
144.7333335421
 30
0.0
 11
177.2677402179
 21
144.6852603631
 31
0.0
  0
LINE
  5
1BB
330
1F
100
AcDbEntity
  8
0
  6
Continuous
 62
     7
370
    25
100
AcDbLine
 10
177.0908565936
 20
144.7333335421
 30
0.0
 11
162.2669817404
 21
130.2647772385
 31
0.0
  0
LINE
  5
1BC
330
1F
100
AcDbEntity
  8
0
  6
Continuous
 62
     7
370
    25
100
AcDbLine
 10
158.4341416647
 20
128.6737476946
 30
0.0
 11
158.4341416647
 21
128.6278776492
 31
0.0
  0
LINE
  5
1BD
330
1F
100
AcDbEntity
  8
0
  6
Continuous
 62
     7
370
    25
100
AcDbLine
 10
158.1961270164
 20
128.5670015158
 30
0.0
 11
158.1961270164
 21
128.3955680557
 31
0.0
  0
LINE
  5
1BE
330
1F
100
AcDbEntity
  8
0
  6
Continuous
 62
     7
370
    25
100
AcDbLine
 10
158.1961270164
 20
128.3955680557
 30
0.0
 11
158.4341416647
 21
128.6278776492
 31
0.0
  0
LINE
  5
1BF
330
1F
100
AcDbEntity
  8
0
  6
Continuous
 62
     7
370
    25
100
AcDbLine
 10
156.4803558603
 20
129.0333113515
 30
0.0
 11
156.4803558603
 21
128.8618778914
 31
0.0
  0
LINE
  5
1C0
330
1F
100
AcDbEntity
  8
0
  6
Continuous
 62
     7
370
    25
100
AcDbLine
 10
158.1961270164
 20
128.3955680557
 30
0.0
 11
156.4803558603
 21
128.8618778914
 31
0.0
  0
LINE
  5
1C1
330
1F
100
AcDbEntity
  8
0
  6
Continuous
 62
     7
370
    25
100
AcDbLine
 10
158.4341416647
 20
128.6278776492
 30
0.0
 11
158.4913260956
 21
128.6123361461
 31
0.0
  0
ARC
  5
1C2
330
1F
100
AcDbEntity
  8
0
  6
Continuous
 62
     7
370
    25
100
AcDbCircle
 10
156.8230637019
 20
129.539309632
 30
0.0
 40
0.5213560634390052
100
AcDbArc
 50
215.9773316538
 51
237.9210372877
  0
ARC
  5
1C3
330
1F
100
AcDbEntity
  8
0
  6
Continuous
 62
     7
370
    25
100
AcDbCircle
 10
173.1603025208
 20
145.4833084351
 30
0.0
 40
0.2428998657232567
100
AcDbArc
 50
183.391562315
 51
254.3338098234
  0
LINE
  5
1C4
330
1F
100
AcDbEntity
  8
0
  6
Continuous
 62
     7
370
    25
100
AcDbLine
 10
148.6974763895
 20
130.9770977646
 30
0.0
 11
148.8841545451
 21
131.1593013673
 31
0.0
  0
LINE
  5
1C5
330
1F
100
AcDbEntity
  8
0
  6
Continuous
 62
     7
370
    25
100
AcDbLine
 10
148.6974763895
 20
131.1485312247
 30
0.0
 11
148.6974763895
 21
130.9770977646
 31
0.0
  0
LINE
  5
1C6
330
1F
100
AcDbEntity
  8
0
  6
Continuous
 62
     7
370
    25
100
AcDbLine
 10
148.8495164042
 20
131.29692694
 30
0.0
 11
148.6974763895
 21
131.1485312247
 31
0.0
  0
LINE
  5
1C7
330
1F
100
AcDbEntity
  8
0
  6
Continuous
 62
     7
370
    25
100
AcDbLine
 10
148.8841545451
 20
131.2961530576
 30
0.0
 11
148.8841545451
 21
131.1593013673
 31
0.0
  0
LINE
  5
1C8
330
1F
100
AcDbEntity
  8
0
  6
Continuous
 62
     7
370
    25
100
AcDbLine
 10
148.6974763895
 20
131.1485312247
 30
0.0
 11
146.9817052335
 21
131.6148410604
 31
0.0
  0
LINE
  5
1C9
330
1F
100
AcDbEntity
  8
0
  6
Continuous
 62
     7
370
    25
100
AcDbLine
 10
147.1190927893
 20
131.7489355267
 30
0.0
 11
146.9817052335
 21
131.6148410604
 31
0.0
  0
LINE
  5
1CA
330
1F
100
AcDbEntity
  8
0
  6
Continuous
 62
     7
370
    25
100
AcDbLine
 10
146.9245208026
 20
131.8018160236
 30
0.0
 11
146.7871332467
 21
131.6677215572
 31
0.0
  0
LINE
  5
1CB
330
1F
100
AcDbEntity
  8
0
  6
Continuous
 62
     7
370
    25
100
AcDbLine
 10
146.7871332467
 20
131.6677215572
 30
0.0
 11
144.0985021568
 21
132.3984338771
 31
0.0
  0
LINE
  5
1CC
330
1F
100
AcDbEntity
  8
0
  6
Continuous
 62
     7
370
    25
100
AcDbLine
 10
144.0985021568
 20
132.3984338771
 30
0.0
 11
144.2358897127
 21
132.5325283434
 31
0.0
  0
LINE
  5
1CD
330
1F
100
AcDbEntity
  8
0
  6
Continuous
 62
     7
370
    25
100
AcDbLine
 10
148.6974763895
 20
130.9770977646
 30
0.0
 11
146.9817052335
 21
131.4434076003
 31
0.0
  0
LINE
  5
1CE
330
1F
100
AcDbEntity
  8
0
  6
Continuous
 62
     7
370
    25
100
AcDbLine
 10
146.9817052335
 20
131.6148410604
 30
0.0
 11
146.9817052335
 21
131.4434076003
 31
0.0
  0
ARC
  5
1CF
330
1F
100
AcDbEntity
  8
0
  6
Continuous
 62
     7
370
    25
100
AcDbCircle
 10
148.9779244866
 20
131.4018365507
 30
0.0
 40
0.2600309926177904
100
AcDbArc
 50
248.8622980239
 51
0.9222550965
  0
LINE
  5
1D0
330
1F
100
AcDbEntity
  8
0
  6
Continuous
 62
     7
370
    25
100
AcDbLine
 10
144.0985021568
 20
132.3984338771
 30
0.0
 11
144.0985021568
 21
132.2270004169
 31
0.0
  0
LINE
  5
1D1
330
1F
100
AcDbEntity
  8
0
  6
Continuous
 62
     7
370
    25
100
AcDbLine
 10
146.7871332467
 20
131.4962880971
 30
0.0
 11
146.7871332467
 21
131.6677215572
 31
0.0
  0
LINE
  5
1D2
330
1F
100
AcDbEntity
  8
0
  6
Continuous
 62
     7
370
    25
100
AcDbLine
 10
146.7871332467
 20
131.4962880971
 30
0.0
 11
144.0985021568
 21
132.2270004169
 31
0.0
  0
LINE
  5
1D3
330
1F
100
AcDbEntity
  8
0
  6
Continuous
 62
     7
370
    25
100
AcDbLine
 10
147.0251478951
 20
131.774467736
 30
0.0
 11
147.0251478951
 21
131.7285976906
 31
0.0
  0
LINE
  5
1D4
330
1F
100
AcDbEntity
  8
0
  6
Continuous
 62
     7
370
    25
100
AcDbLine
 10
147.0251478951
 20
131.7285976906
 30
0.0
 11
146.7871332467
 21
131.4962880971
 31
0.0
  0
LINE
  5
1D5
330
1F
100
AcDbEntity
  8
0
  6
Continuous
 62
     7
370
    25
100
AcDbLine
 10
147.082332326
 20
131.7130561876
 30
0.0
 11
147.0251478951
 21
131.7285976906
 31
0.0
  0
SPLINE
  5
1D6
330
1F
100
AcDbEntity
  8
0
  6
Continuous
 62
     7
370
    25
100
AcDbSpline
210
0.0
220
0.0
230
1.0
 70
     8
 71
     3
 72
    11
 73
     7
 74
     0
 42
0.00000001
 43
0.00000001
 40
0.0
 40
0.0
 40
0.0
 40
0.0
 40
0.1546155429309532
 40
0.4622050313268805
 40
0.769826266549879
 40
1.0
 40
1.0
 40
1.0
 40
1.0
 10
143.9508640043303
 20
132.7831978969369
 30
0.0
 10
143.944615744294
 20
132.7484927083619
 30
0.0
 10
143.9259373037501
 20
132.6447456175558
 30
0.0
 10
143.9584732014602
 20
132.4762701593188
 30
0.0
 10
144.0231674108883
 20
132.3197862843523
 30
0.0
 10
144.0759230078476
 20
132.2548099740964
 30
0.0
 10
144.0985021568167
 20
132.2270004169443
 30
0.0
  0
SPLINE
  5
1D7
330
1F
100
AcDbEntity
  8
0
  6
Continuous
 62
     7
370
    25
100
AcDbSpline
210
0.0
220
0.0
230
1.0
 70
     8
 71
     3
 72
     9
 73
     5
 74
     0
 42
0.00000001
 43
0.00000001
 40
0.0
 40
0.0
 40
0.0
 40
0.0
 40
0.4702288412022149
 40
1.0
 40
1.0
 40
1.0
 40
1.0
 10
144.0880508006023
 20
132.5830900192958
 30
0.0
 10
144.0861799774499
 20
132.5482869107697
 30
0.0
 10
144.0822014397925
 20
132.4742737804031
 30
0.0
 10
144.0928570969674
 20
132.4246978010926
 30
0.0
 10
144.0985021568167
 20
132.3984338770847
 30
0.0
  0
LINE
  5
1D8
330
1F
100
AcDbEntity
  8
0
  6
Continuous
 62
     7
370
    25
100
AcDbLine
 10
165.2012248042
 20
135.404191708
 30
0.0
 11
165.2012248042
 21
135.2327582478
 31
0.0
  0
LINE
  5
1D9
330
1F
100
AcDbEntity
  8
0
  6
Continuous
 62
     7
370
    25
100
AcDbLine
 10
165.0959307578
 20
135.1299880306
 30
0.0
 11
165.2012248042
 21
135.2327582478
 31
0.0
  0
LINE
  5
1DA
330
1F
100
AcDbEntity
  8
0
  6
Continuous
 62
     7
370
    25
100
AcDbLine
 10
165.2012248042
 20
135.2327582478
 30
0.0
 11
165.2584092351
 21
135.2172167448
 31
0.0
  0
LINE
  5
1DB
330
1F
100
AcDbEntity
  8
0
  6
Continuous
 62
     7
370
    25
100
AcDbLine
 10
177.3007405653
 20
161.0036484272
 30
0.0
 11
177.3007405653
 21
145.1209475153
 31
0.0
  0
LINE
  5
1DC
330
1F
100
AcDbEntity
  8
0
  6
Continuous
 62
     7
370
    25
100
AcDbLine
 10
178.0474531876
 20
161.7324628381
 30
0.0
 11
177.3007405653
 21
161.0036484272
 31
0.0
  0
LINE
  5
1DD
330
1F
100
AcDbEntity
  8
0
  6
Continuous
 62
     7
370
    25
100
AcDbLine
 10
178.0474531876
 20
161.7324628381
 30
0.0
 11
178.0474531876
 21
144.478294245
 31
0.0
  0
LINE
  5
1DE
330
1F
100
AcDbEntity
  8
0
  6
Continuous
 62
     7
370
    25
100
AcDbLine
 10
178.0474531876
 20
144.478294245
 30
0.0
 11
177.3007405653
 21
145.1209475153
 31
0.0
  0
LINE
  5
1DF
330
1F
100
AcDbEntity
  8
0
  6
Continuous
 62
     7
370
    25
100
AcDbLine
 10
177.123856941
 20
161.0517216062
 30
0.0
 11
177.123856941
 21
145.1690206942
 31
0.0
  0
LINE
  5
1E0
330
1F
100
AcDbEntity
  8
0
  6
Continuous
 62
     7
370
    25
100
AcDbLine
 10
177.3007405653
 20
161.0036484272
 30
0.0
 11
177.123856941
 21
161.0517216062
 31
0.0
  0
LINE
  5
1E1
330
1F
100
AcDbEntity
  8
0
  6
Continuous
 62
     7
370
    25
100
AcDbLine
 10
177.3007405653
 20
145.1209475153
 30
0.0
 11
177.123856941
 21
145.1690206942
 31
0.0
  0
LINE
  5
1E2
330
1F
100
AcDbEntity
  8
0
  6
Continuous
 62
     7
370
    25
100
AcDbLine
 10
177.8705695633
 20
161.7805360171
 30
0.0
 11
177.123856941
 21
161.0517216062
 31
0.0
  0
LINE
  5
1E3
330
1F
100
AcDbEntity
  8
0
  6
Continuous
 62
     7
370
    25
100
AcDbLine
 10
177.8705695633
 20
161.7805360171
 30
0.0
 11
178.0474531876
 21
161.7324628381
 31
0.0
  0
SPLINE
  5
1E4
330
1F
100
AcDbEntity
  8
0
  6
Continuous
 62
     7
370
    25
100
AcDbSpline
210
0.0
220
0.0
230
1.0
 70
     8
 71
     3
 72
    10
 73
     6
 74
     0
 42
0.00000001
 43
0.00000001
 40
0.0
 40
0.0
 40
0.0
 40
0.0
 40
0.3456695175961744
 40
0.719949611249318
 40
1.0
 40
1.0
 40
1.0
 40
1.0
 10
178.0118564316726
 20
144.4075256490484
 30
0.0
 10
178.038962014781
 20
144.417952582418
 30
0.0
 10
178.0954166716954
 20
144.4396694716541
 30
0.0
 10
178.1007576967787
 20
144.4550719312914
 30
0.0
 10
178.0634294869671
 20
144.4713341089732
 30
0.0
 10
178.0474531876043
 20
144.478294245027
 30
0.0
  0
LWPOLYLINE
  5
1E5
330
1F
100
AcDbEntity
  8
0
  6
Continuous
 62
     7
370
    25
100
AcDbPolyline
 90
        9
 70
   128
 43
0.0
 10
178.0474531876
 20
161.7324628381
 10
178.0770747506
 20
161.769856423
 10
178.0919628966
 20
161.8095078439
 10
178.0915454824
 20
161.8498933191
 10
178.0758385491
 20
161.8894608574
 10
178.0454457054
 20
161.9266899005
 10
178.001534931
 20
161.9601497571
 10
177.9457936926
 20
161.9885545837
 10
177.8803640945
 20
162.0108127987
  0
LINE
  5
1E6
330
1F
100
AcDbEntity
  8
0
  6
Continuous
 62
     7
370
    25
100
AcDbLine
 10
177.7870250167
 20
161.9197109974
 30
0.0
 11
177.8803640945
 21
162.0108127987
 31
0.0
  0
LWPOLYLINE
  5
1E7
330
1F
100
AcDbEntity
  8
0
  6
Continuous
 62
     7
370
    25
100
AcDbPolyline
 90
        9
 70
   128
 43
0.0
 10
177.8705695633
 20
161.7805360171
 10
177.8853803448
 20
161.7992328095
 10
177.8928244178
 20
161.8190585199
 10
177.8926157107
 20
161.8392512575
 10
177.884762244
 20
161.8590350267
 10
177.8695658221
 20
161.8776495482
 10
177.847610435
 20
161.8943794765
 10
177.8197398157
 20
161.9085818898
 10
177.7870250167
 20
161.9197109974
  0
SPLINE
  5
1E8
330
1F
100
AcDbEntity
  8
0
  6
Continuous
 62
     7
370
    25
100
AcDbSpline
210
0.0
220
0.0
230
1.0
 70
     8
 71
     3
 72
    14
 73
    10
 74
     0
 42
0.00000001
 43
0.00000001
 40
0.0
 40
0.0
 40
0.0
 40
0.0
 40
0.25
 40
0.25
 40
0.5
 40
0.5
 40
0.75
 40
0.75
 40
1.0
 40
1.0
 40
1.0
 40
1.0
 10
177.7870250167193
 20
144.2620646028869
 30
0.0
 10
177.8103559973688
 20
144.2896038773903
 30
0.0
 10
177.8308552457093
 20
144.3143130273157
 30
0.0
 10
177.8642203034614
 20
144.3606899958729
 30
0.0
 10
177.8770451772194
 20
144.3824488882611
 30
0.0
 10
177.8924415947529
 20
144.4237050647084
 30
0.0
 10
177.8952589962404
 20
144.4434522674406
 30
0.0
 10
177.8904421362377
 20
144.4841502047834
 30
0.0
 10
177.8828810022413
 20
144.5045036349269
 30
0.0
 10
177.8705695632688
 20
144.5263674239638
 30
0.0
  0
LINE
  5
1E9
330
1F
100
AcDbEntity
  8
0
  6
Continuous
 62
     7
370
    25
100
AcDbLine
 10
177.7870250167
 20
161.9197109974
 30
0.0
 11
177.7870250167
 21
161.6989939784
 31
0.0
  0
LINE
  5
1EA
330
1F
100
AcDbEntity
  8
0
  6
Continuous
 62
     7
370
    25
100
AcDbLine
 10
177.7870250167
 20
144.5982694843
 30
0.0
 11
177.7870250167
 21
144.2620646029
 31
0.0
  0
LINE
  5
1EB
330
1F
100
AcDbEntity
  8
0
  6
Continuous
 62
     7
370
    25
100
AcDbLine
 10
173.188050784
 20
145.5119672552
 30
0.0
 11
173.188050784
 21
163.1696136497
 31
0.0
  0
LINE
  5
1EC
330
1F
100
AcDbEntity
  8
0
  6
Continuous
 62
     7
370
    25
100
AcDbLine
 10
173.188050784
 20
163.1696136497
 30
0.0
 11
177.7870250167
 21
161.9197109974
 31
0.0
  0
LINE
  5
1ED
330
1F
100
AcDbEntity
  8
0
  6
Continuous
 62
     7
370
    25
100
AcDbLine
 10
177.7870250167
 20
144.2620646029
 30
0.0
 11
177.7467385863
 21
144.2730135914
 31
0.0
  0
LINE
  5
1EE
330
1F
100
AcDbEntity
  8
0
  6
Continuous
 62
     7
370
    25
100
AcDbLine
 10
176.8648081943
 20
144.5127033745
 30
0.0
 11
173.188050784
 21
145.5119672552
 31
0.0
  0
LINE
  5
1EF
330
1F
100
AcDbEntity
  8
0
  6
Continuous
 62
     7
370
    25
100
AcDbLine
 10
173.188050784
 20
163.1696136497
 30
0.0
 11
173.2813898618
 21
163.2607154511
 31
0.0
  0
LINE
  5
1F0
330
1F
100
AcDbEntity
  8
0
  6
Continuous
 62
     7
370
    25
100
AcDbLine
 10
173.2813898618
 20
163.2607154511
 30
0.0
 11
177.8803640945
 21
162.0108127987
 31
0.0
  0
LINE
  5
1F1
330
1F
100
AcDbEntity
  8
0
  6
Continuous
 62
     7
370
    25
100
AcDbLine
 10
168.2347448322
 20
138.3650002522
 30
0.0
 11
168.2347448322
 21
138.193566792
 31
0.0
  0
LINE
  5
1F2
330
1F
100
AcDbEntity
  8
0
  6
Continuous
 62
     7
370
    25
100
AcDbLine
 10
168.2347448322
 20
138.193566792
 30
0.0
 11
168.1294507858
 21
138.0907965748
 31
0.0
  0
LINE
  5
1F3
330
1F
100
AcDbEntity
  8
0
  6
Continuous
 62
     7
370
    25
100
AcDbLine
 10
168.2919292632
 20
138.178025289
 30
0.0
 11
168.2347448322
 21
138.193566792
 31
0.0
  0
ARC
  5
1F4
330
1F
100
AcDbEntity
  8
0
  6
Continuous
 62
     7
370
    25
100
AcDbCircle
 10
173.0963721201
 20
162.8753390823
 30
0.0
 40
0.3082247530958266
100
AcDbArc
 50
72.6960345908
 51
125.398914916
  0
ARC
  5
1F5
330
1F
100
AcDbEntity
  8
0
  6
Continuous
 62
     7
370
    25
100
AcDbCircle
 10
173.0963721201
 20
145.2176926879
 30
0.0
 40
0.3082247530955822
100
AcDbArc
 50
72.6960345908
 51
125.3989149161
  0
ARC
  5
1F6
330
1F
100
AcDbEntity
  8
0
  6
Continuous
 62
     7
370
    25
100
AcDbCircle
 10
173.0949092432
 20
162.5602260807
 30
0.0
 40
0.7248864594616448
100
AcDbArc
 50
75.0927582069
 51
106.0893666699
  0
ARC
  5
1F7
330
1F
100
AcDbEntity
  8
0
  6
Continuous
 62
     7
370
    25
100
AcDbCircle
 10
165.9299662479
 20
165.3287430996
 30
0.0
 40
0.1081796693768292
100
AcDbArc
 50
80.7318299957
 51
143.9675277131
  0
LWPOLYLINE
  5
1F8
330
1F
100
AcDbEntity
  8
0
  6
Continuous
 62
     7
370
    25
100
AcDbPolyline
 90
        9
 70
   128
 43
0.0
 10
172.7474129181
 20
163.4661228395
 10
172.7471520204
 20
163.4683240146
 10
172.7365289603
 20
163.5222750544
 10
172.7192780468
 20
163.5647147989
 10
172.6960622229
 20
163.5940123126
 10
172.6677736596
 20
163.6090417085
 10
172.6354994705
 20
163.6092254153
 10
172.6004799347
 20
163.5945563732
 10
172.5640608332
 20
163.5655983054
  0
LWPOLYLINE
  5
1F9
330
1F
100
AcDbEntity
  8
0
  6
Continuous
 62
     7
370
    25
100
AcDbPolyline
 90
        3
 70
   128
 43
0.0
 10
165.5767641763
 20
165.3480808791
 10
165.5639399891
 20
165.3536771092
 10
165.498510391
 20
165.3759353243
  0
ARC
  5
1FA
330
1F
100
AcDbEntity
  8
0
  6
Continuous
 62
     7
370
    25
100
AcDbCircle
 10
165.3563124117
 20
165.08389956
 30
0.0
 40
0.2067889013451014
100
AcDbArc
 50
54.2777964816
 51
76.3332501063
  0
LINE
  5
1FB
330
1F
100
AcDbEntity
  8
0
  6
Continuous
 62
     7
370
    25
100
AcDbLine
 10
165.4051713132
 20
165.2848335229
 30
0.0
 11
165.498510391
 21
165.3759353243
 31
0.0
  0
LINE
  5
1FC
330
1F
100
AcDbEntity
  8
0
  6
Continuous
 62
     7
370
    25
100
AcDbLine
 10
165.4051713132
 20
165.2848335229
 30
0.0
 11
165.4051713132
 21
165.1816294536
 31
0.0
  0
LINE
  5
1FD
330
1F
100
AcDbEntity
  8
0
  6
Continuous
 62
     7
370
    25
100
AcDbLine
 10
160.8061970805
 20
160.6928896144
 30
0.0
 11
160.8061970805
 21
166.5347361753
 31
0.0
  0
LINE
  5
1FE
330
1F
100
AcDbEntity
  8
0
  6
Continuous
 62
     7
370
    25
100
AcDbLine
 10
160.8061970805
 20
166.5347361753
 30
0.0
 11
165.4051713132
 21
165.2848335229
 31
0.0
  0
LINE
  5
1FF
330
1F
100
AcDbEntity
  8
0
  6
Continuous
 62
     7
370
    25
100
AcDbLine
 10
160.8995361583
 20
166.6258379766
 30
0.0
 11
165.498510391
 21
165.3759353243
 31
0.0
  0
LINE
  5
200
330
1F
100
AcDbEntity
  8
0
  6
Continuous
 62
     7
370
    25
100
AcDbLine
 10
160.8061970805
 20
166.5347361753
 30
0.0
 11
160.8995361583
 21
166.6258379766
 31
0.0
  0
LINE
  5
201
330
1F
100
AcDbEntity
  8
0
  6
Continuous
 62
     7
370
    25
100
AcDbLine
 10
171.618286402
 20
141.6674405515
 30
0.0
 11
171.618286402
 21
141.4960070914
 31
0.0
  0
LINE
  5
202
330
1F
100
AcDbEntity
  8
0
  6
Continuous
 62
     7
370
    25
100
AcDbLine
 10
171.618286402
 20
141.4960070914
 30
0.0
 11
171.5129923556
 21
141.3932368742
 31
0.0
  0
LINE
  5
203
330
1F
100
AcDbEntity
  8
0
  6
Continuous
 62
     7
370
    25
100
AcDbLine
 10
159.7892617561
 20
165.762893142
 30
0.0
 11
160.5359743784
 21
166.4917075529
 31
0.0
  0
LINE
  5
204
330
1F
100
AcDbEntity
  8
0
  6
Continuous
 62
     7
370
    25
100
AcDbLine
 10
160.5359743784
 20
166.4917075529
 30
0.0
 11
160.5359743784
 21
160.4291439731
 31
0.0
  0
LINE
  5
205
330
1F
100
AcDbEntity
  8
0
  6
Continuous
 62
     7
370
    25
100
AcDbLine
 10
159.7892617561
 20
159.7003295622
 30
0.0
 11
159.7892617561
 21
165.762893142
 31
0.0
  0
LINE
  5
206
330
1F
100
AcDbEntity
  8
0
  6
Continuous
 62
     7
370
    25
100
AcDbLine
 10
159.6123781318
 20
159.5276857222
 30
0.0
 11
159.6123781318
 21
165.8109663209
 31
0.0
  0
LINE
  5
207
330
1F
100
AcDbEntity
  8
0
  6
Continuous
 62
     7
370
    25
100
AcDbLine
 10
159.6123781318
 20
165.8109663209
 30
0.0
 11
159.7892617561
 21
165.762893142
 31
0.0
  0
LINE
  5
208
330
1F
100
AcDbEntity
  8
0
  6
Continuous
 62
     7
370
    25
100
AcDbLine
 10
159.6123781318
 20
165.8109663209
 30
0.0
 11
160.3590907541
 21
166.5397807318
 31
0.0
  0
LINE
  5
209
330
1F
100
AcDbEntity
  8
0
  6
Continuous
 62
     7
370
    25
100
AcDbLine
 10
160.5359743784
 20
166.4917075529
 30
0.0
 11
160.3590907541
 21
166.5397807318
 31
0.0
  0
LINE
  5
20A
330
1F
100
AcDbEntity
  8
0
  6
Continuous
 62
     7
370
    25
100
AcDbLine
 10
171.6754708329
 20
141.4804655884
 30
0.0
 11
171.618286402
 21
141.4960070914
 31
0.0
  0
ARC
  5
20B
330
1F
100
AcDbEntity
  8
0
  6
Continuous
 62
     7
370
    25
100
AcDbCircle
 10
160.7145184166
 20
166.2404616079
 30
0.0
 40
0.3082247530958351
100
AcDbArc
 50
72.6960345908
 51
125.398914916
  0
ARC
  5
20C
330
1F
100
AcDbEntity
  8
0
  6
Continuous
 62
     7
370
    25
100
AcDbCircle
 10
160.7161788304
 20
166.0372888419
 30
0.0
 40
0.6164495061917467
100
AcDbArc
 50
72.6960345908
 51
125.398914916
  0
LINE
  5
20D
330
1F
100
AcDbEntity
  8
0
  6
Continuous
 62
     7
370
    25
100
AcDbLine
 10
178.0474531876
 20
144.478294245
 30
0.0
 11
177.8705695633
 21
144.526367424
 31
0.0
  0
LINE
  5
20E
330
1F
100
AcDbEntity
  8
0
  6
Continuous
 62
     7
370
    25
100
AcDbLine
 10
177.8705695633
 20
144.526367424
 30
0.0
 11
177.123856941
 21
145.1690206942
 31
0.0
  0
LINE
  5
20F
330
1F
100
AcDbEntity
  8
0
  6
Continuous
 62
     7
370
    25
100
AcDbLine
 10
177.7870250167
 20
144.2620646029
 30
0.0
 11
177.8015700494
 21
144.2762610006
 31
0.0
  0
LINE
  5
210
330
1F
100
AcDbEntity
  8
0
  6
Continuous
 62
     7
370
    25
100
AcDbLine
 10
174.9971610178
 20
144.9653257608
 30
0.0
 11
174.9971610178
 21
144.7938923006
 31
0.0
  0
LINE
  5
211
330
1F
100
AcDbEntity
  8
0
  6
Continuous
 62
     7
370
    25
100
AcDbLine
 10
174.9971610178
 20
144.7938923006
 30
0.0
 11
174.8965339253
 21
144.6956771735
 31
0.0
  0
MTEXT
  5
213
330
1F
100
AcDbEntity
  8
0
  6
Continuous
 62
     7
100
AcDbMText
 10
0.0
 20
10.4173632428
 30
0.0
 40
3.73507
 41
0.0
 71
     1
 72
     1
  1
SOLIDWORKS Educational Product.
  7
SLDTEXTSTYLE3
 73
     1
 44
1.0
  0
MTEXT
  5
214
330
1F
100
AcDbEntity
  8
0
  6
Continuous
 62
     7
100
AcDbMText
 10
0.0
 20
4.8147582428
 30
0.0
 40
3.73507
 41
0.0
 71
     1
 72
     1
  1
For Instructional Use Only.
  7
SLDTEXTSTYLE3
 73
     1
 44
1.0
  0
ENDSEC
  0
SECTION
  2
OBJECTS
  0
DICTIONARY
  5
C
330
0
100
AcDbDictionary
281
     1
  3
ACAD_GROUP
350
D
  3
ACAD_LAYOUT
350
1A
  3
ACAD_MLINESTYLE
350
17
  3
ACAD_PLOTSETTINGS
350
19
  3
ACAD_PLOTSTYLENAME
350
E
  3
ACAD_SCALELIST
350
47
  3
DWGPROPS
350
215
  0
DICTIONARY
  5
D
102
{ACAD_REACTORS
330
C
102
}
330
C
100
AcDbDictionary
281
     1
  0
DICTIONARY
  5
1A
102
{ACAD_REACTORS
330
C
102
}
330
C
100
AcDbDictionary
281
     1
  3
Layout1
350
1E
  3
Layout2
350
26
  3
Model
350
22
  0
DICTIONARY
  5
17
102
{ACAD_REACTORS
330
C
102
}
330
C
100
AcDbDictionary
281
     1
  3
Standard
350
18
  0
DICTIONARY
  5
19
102
{ACAD_REACTORS
330
C
102
}
330
C
100
AcDbDictionary
281
     1
  0
ACDBDICTIONARYWDFLT
  5
E
102
{ACAD_REACTORS
330
C
102
}
330
C
100
AcDbDictionary
281
     1
  3
Normal
350
F
100
AcDbDictionaryWithDefault
340
F
  0
DICTIONARY
  5
47
102
{ACAD_REACTORS
330
C
102
}
330
C
100
AcDbDictionary
281
     1
  3
A0
350
48
  3
A1
350
49
  3
A2
350
4A
  3
A3
350
4B
  3
A4
350
4C
  3
A5
350
4D
  3
A6
350
4E
  3
A7
350
4F
  3
A8
350
50
  3
A9
350
51
  3
B0
350
52
  3
B1
350
53
  3
B2
350
54
  3
B3
350
55
  3
B4
350
56
  3
B5
350
57
  3
B6
350
58
  0
XRECORD
  5
215
102
{ACAD_REACTORS
330
C
102
}
330
C
100
AcDbXrecord
280
     1
  1
DWGPROPS COOKIE
  2

  3

  4

  6

  7

  8
ruben
  9

300
=
301
=
302
=
303
=
304
=
305
=
306
=
307
=
308
=
309
=
 40
0.0
 41
2460733.453577905
 42
2460733.453579561
  1

 90
        0
  0
LAYOUT
  5
1E
102
{ACAD_REACTORS
330
1A
102
}
330
1A
100
AcDbPlotSettings
  1

  2
none_device
  4

  6

 40
0.0
 41
0.0
 42
0.0
 43
0.0
 44
0.0
 45
0.0
 46
0.0
 47
0.0
 48
0.0
 49
0.0
140
0.0
141
0.0
142
1.0
143
1.0
 70
   688
 72
     1
 73
     0
 74
     5
  7

 75
    16
147
1.0
148
0.0
149
0.0
100
AcDbLayout
  1
Layout1
 70
     1
 71
     1
 10
0.0
 20
0.0
 11
420.0
 21
297.0
 12
0.0
 22
0.0
 32
0.0
 14
1.0000000000E+20
 24
1.0000000000E+20
 34
1.0000000000E+20
 15
-1.0000000000E+20
 25
-1.0000000000E+20
 35
-1.0000000000E+20
146
0.0
 13
0.0
 23
0.0
 33
0.0
 16
1.0
 26
0.0
 36
0.0
 17
0.0
 27
1.0
 37
0.0
 76
     0
330
1B
  0
LAYOUT
  5
26
102
{ACAD_REACTORS
330
1A
102
}
330
1A
100
AcDbPlotSettings
  1

  2
none_device
  4

  6

 40
0.0
 41
0.0
 42
0.0
 43
0.0
 44
0.0
 45
0.0
 46
0.0
 47
0.0
 48
0.0
 49
0.0
140
0.0
141
0.0
142
1.0
143
1.0
 70
   688
 72
     1
 73
     0
 74
     5
  7

 75
    16
147
1.0
148
0.0
149
0.0
100
AcDbLayout
  1
Layout2
 70
     1
 71
     2
 10
0.0
 20
0.0
 11
0.0
 21
0.0
 12
0.0
 22
0.0
 32
0.0
 14
0.0
 24
0.0
 34
0.0
 15
0.0
 25
0.0
 35
0.0
146
0.0
 13
0.0
 23
0.0
 33
0.0
 16
1.0
 26
0.0
 36
0.0
 17
0.0
 27
1.0
 37
0.0
 76
     0
330
23
  0
LAYOUT
  5
22
102
{ACAD_REACTORS
330
1A
102
}
330
1A
100
AcDbPlotSettings
  1

  2
none_device
  4
Letter_(8.50_x_11.00_Inches)
  6

 40
6.35
 41
6.35
 42
6.35000508
 43
6.35000508
 44
215.9
 45
279.4
 46
0.0
 47
0.0
 48
0.0
 49
0.0
140
0.0
141
0.0
142
1.0
143
1.0
 70
  1712
 72
     1
 73
     0
 74
     0
  7

 75
     0
147
1.0
148
0.0
149
0.0
100
AcDbLayout
  1
Model
 70
     1
 71
     0
 10
0.0
 20
0.0
 11
279.4
 21
215.9
 12
0.0
 22
0.0
 32
0.0
 14
0.0
 24
0.0
 34
0.0
 15
279.4
 25
215.9
 35
0.0
146
0.0
 13
0.0
 23
0.0
 33
0.0
 16
1.0
 26
0.0
 36
0.0
 17
0.0
 27
1.0
 37
0.0
 76
     0
330
1F
331
29
  0
MLINESTYLE
  5
18
102
{ACAD_REACTORS
330
17
102
}
330
17
100
AcDbMlineStyle
  2
Standard
 70
     0
  3

 62
   256
 51
90.0
 52
90.0
 71
     2
 49
0.5
 62
   256
  6
BYLAYER
 49
-0.5
 62
   256
  6
BYLAYER
  0
ACDBPLACEHOLDER
  5
F
102
{ACAD_REACTORS
330
E
102
}
330
E
  0
SCALE
  5
48
102
{ACAD_REACTORS
330
47
102
}
330
47
100
AcDbScale
 70
     0
300
1:1
140
1.0
141
1.0
290
     1
  0
SCALE
  5
49
102
{ACAD_REACTORS
330
47
102
}
330
47
100
AcDbScale
 70
     0
300
1:2
140
1.0
141
2.0
290
     0
  0
SCALE
  5
4A
102
{ACAD_REACTORS
330
47
102
}
330
47
100
AcDbScale
 70
     0
300
1:4
140
1.0
141
4.0
290
     0
  0
SCALE
  5
4B
102
{ACAD_REACTORS
330
47
102
}
330
47
100
AcDbScale
 70
     0
300
1:5
140
1.0
141
5.0
290
     0
  0
SCALE
  5
4C
102
{ACAD_REACTORS
330
47
102
}
330
47
100
AcDbScale
 70
     0
300
1:8
140
1.0
141
8.0
290
     0
  0
SCALE
  5
4D
102
{ACAD_REACTORS
330
47
102
}
330
47
100
AcDbScale
 70
     0
300
1:10
140
1.0
141
10.0
290
     0
  0
SCALE
  5
4E
102
{ACAD_REACTORS
330
47
102
}
330
47
100
AcDbScale
 70
     0
300
1:16
140
1.0
141
16.0
290
     0
  0
SCALE
  5
4F
102
{ACAD_REACTORS
330
47
102
}
330
47
100
AcDbScale
 70
     0
300
1:20
140
1.0
141
20.0
290
     0
  0
SCALE
  5
50
102
{ACAD_REACTORS
330
47
102
}
330
47
100
AcDbScale
 70
     0
300
1:30
140
1.0
141
30.0
290
     0
  0
SCALE
  5
51
102
{ACAD_REACTORS
330
47
102
}
330
47
100
AcDbScale
 70
     0
300
1:40
140
1.0
141
40.0
290
     0
  0
SCALE
  5
52
102
{ACAD_REACTORS
330
47
102
}
330
47
100
AcDbScale
 70
     0
300
1:50
140
1.0
141
50.0
290
     0
  0
SCALE
  5
53
102
{ACAD_REACTORS
330
47
102
}
330
47
100
AcDbScale
 70
     0
300
1:100
140
1.0
141
100.0
290
     0
  0
SCALE
  5
54
102
{ACAD_REACTORS
330
47
102
}
330
47
100
AcDbScale
 70
     0
300
2:1
140
2.0
141
1.0
290
     0
  0
SCALE
  5
55
102
{ACAD_REACTORS
330
47
102
}
330
47
100
AcDbScale
 70
     0
300
4:1
140
4.0
141
1.0
290
     0
  0
SCALE
  5
56
102
{ACAD_REACTORS
330
47
102
}
330
47
100
AcDbScale
 70
     0
300
8:1
140
8.0
141
1.0
290
     0
  0
SCALE
  5
57
102
{ACAD_REACTORS
330
47
102
}
330
47
100
AcDbScale
 70
     0
300
10:1
140
10.0
141
1.0
290
     0
  0
SCALE
  5
58
102
{ACAD_REACTORS
330
47
102
}
330
47
100
AcDbScale
 70
     0
300
100:1
140
100.0
141
1.0
290
     0
  0
ENDSEC
  0
EOF
