<svg width="2453" height="2465" viewBox="0 0 2453 2465" fill="none" xmlns="http://www.w3.org/2000/svg">
<g filter="url(#filter0_d_3_2)">
<path d="M1761.25 1828.46C1627.34 1840.79 1536.94 1691.02 1622.23 1582.21C1653.44 1542.4 1697.94 1532.66 1741.7 1513.71C1785.22 1494.86 1826.5 1470.54 1863.32 1440.6C1900.17 1410.64 1933.91 1376.58 1959.59 1336.43C2031.96 1223.28 2032.39 1079.36 1999.77 952.982C1946.09 745.072 1799.51 560.318 1608.27 462.255C1386.46 348.517 1140.76 375.06 920.993 480.191C750.151 561.916 589.967 681.967 484.556 841.326C353.517 1039.43 323.838 1285.42 373.801 1514.85C391.442 1595.85 416.984 1681.45 462.571 1751.66C501.349 1811.37 561.991 1872.34 613.812 1921.3C682.311 1986.01 758.454 2042.65 841.61 2087.15C1071.69 2210.28 1336.15 2225.71 1591.95 2221.59C1860.94 2217.26 2130.46 2193.93 2399.59 2199.3C2451.77 2200.35 2468.52 2273.44 2419.82 2295.02C2398.15 2304.62 2346.84 2306.72 2321.15 2310.51C2256.66 2320.01 2192.39 2330.91 2128.24 2342.44C1851.91 2392.11 1575.23 2455.48 1293 2456.08C937.245 2456.82 628.014 2349.73 363.603 2107.38C297.838 2047.1 231.09 1982.67 182.04 1907.54C43.524 1695.37 -13.3738 1398.77 9.29101 1149.41C21.6491 1013.44 57.166 880.592 115.56 757.121C217.627 541.306 387.988 366.584 585.734 235.882C758.203 121.888 952.838 39.3358 1158.38 10.9918C1605.93 -50.7243 2022.98 177.037 2253.92 556.878C2429.14 845.078 2495.79 1239.82 2295.39 1533.72C2265.37 1577.75 2230.41 1618.47 2190.6 1653.95C2141.1 1698.06 2085.55 1733.48 2025.13 1760.68C1942.79 1797.76 1851.13 1820.19 1761.25 1828.46Z" fill="black"/>
</g>
<defs>
<filter id="filter0_d_3_2" x="0.45459" y="0.950378" width="2452.33" height="2463.13" filterUnits="userSpaceOnUse" color-interpolation-filters="sRGB">
<feFlood flood-opacity="0" result="BackgroundImageFix"/>
<feColorMatrix in="SourceAlpha" type="matrix" values="0 0 0 0 0 0 0 0 0 0 0 0 0 0 0 0 0 0 127 0" result="hardAlpha"/>
<feOffset dy="4"/>
<feGaussianBlur stdDeviation="2"/>
<feComposite in2="hardAlpha" operator="out"/>
<feColorMatrix type="matrix" values="0 0 0 0 0 0 0 0 0 0 0 0 0 0 0 0 0 0 0.25 0"/>
<feBlend mode="normal" in2="BackgroundImageFix" result="effect1_dropShadow_3_2"/>
<feBlend mode="normal" in="SourceGraphic" in2="effect1_dropShadow_3_2" result="shape"/>
</filter>
</defs>
</svg>
