<?xml version="1.0" encoding="UTF-8" standalone="no"?>
<!-- Created with Inkscape (http://www.inkscape.org/) -->

<svg
   version="1.1"
   id="svg6337"
   width="143.5179"
   height="128.7942"
   viewBox="0 0 143.5179 128.7942"
   xmlns="http://www.w3.org/2000/svg"
   xmlns:svg="http://www.w3.org/2000/svg">
  <defs
     id="defs6341" />
  <g
     id="g6343"
     transform="translate(-19.482098,-10.987422)">
    <g
       id="g11184">
      <path
         style="fill:#ffffff;fill-opacity:1"
         d="M 149.79966,62.585319 C 154.40799,60.17106 163.41893,48.895147 161.82374,47.538896 161.64568,47.387512 158.8,47.714854 155.5,48.266323 147.04342,49.679516 143.11657,47.92478 140.06868,41.370758 138.82287,38.691841 136.86933,35.4875 135.72748,34.25 c -3.46633,-3.756664 0.37816,-2.88061 11.87135,2.705158 C 161.80839,43.861097 163,44.090811 163,39.924132 163,28.353504 147.62085,16.618187 126.97526,12.434856 114.05039,9.8159414 92.166988,10.841333 76.933379,14.779671 66.327832,17.521518 49.068273,24.401607 50.130593,25.463926 c 0.246179,0.246179 4.255005,-0.233629 8.908502,-1.066239 17.016089,-3.044543 41.893385,1.711821 49.295135,9.424881 L 110.9036,36.5 100.96393,36.183847 C 83.265497,35.62091 68.836663,39.761286 51.674488,50.327529 37.967211,58.766693 36.087755,60.524626 44.5,57.038123 c 23.763324,-9.848844 52.848618,-9.000404 80.14432,2.33787 11.8382,4.917428 19.92547,5.949205 25.15534,3.209326 z"
         id="path6380" />
      <path
         style="fill:#ffffff;fill-opacity:1"
         d="m 61.566341,138.94532 c 8.080738,-1.43632 22.598016,-8.75218 30.811983,-15.52744 3.729129,-3.07596 6.608257,-5.76463 6.398061,-5.97483 -0.210196,-0.21019 -3.733372,0.91881 -7.82928,2.50889 C 76.684465,125.48888 61.058902,127.13061 54.5,123.78131 37.072419,114.88193 42.737197,90.965081 65.923532,75.550836 81.481283,65.208063 104.58936,60.316948 117.66608,64.598875 118.67474,64.929156 117.7,64.077326 115.5,62.705919 99.578706,52.781118 73.590372,53.391998 52.713282,64.18178 42.456371,69.482798 28.785292,82.575877 24.71116,91 c -9.260967,19.14899 -6.078676,35.58274 8.418591,43.47467 9.307206,5.06659 17.679017,6.38276 28.43659,4.47065 z"
         id="path6354" />
    </g>
    <path
       style="display:none;fill:#000000"
       d="M 0,90.5 V 0 H 259 518 V 90.5 181 H 259 0 Z"
       id="path6347" />
  </g>
</svg>
